<svg id="svg" version="1.1" xmlns="http://www.w3.org/2000/svg" xmlns:xlink="http://www.w3.org/1999/xlink" width="400" height="375.4385964912281" viewBox="0, 0, 400,375.4385964912281"><g id="svgg"><path id="path0" d="M164.883 55.075 C 157.074 59.309,152.160 64.937,148.573 73.755 C 147.218 77.084,149.831 91.314,154.342 105.178 C 157.487 114.845,160.825 124.909,161.127 125.634 C 161.299 126.047,161.522 126.723,161.623 127.136 C 161.723 127.549,162.573 130.085,163.510 132.770 C 166.892 142.457,167.136 143.016,167.136 141.071 C 167.136 140.506,167.335 139.675,167.577 139.224 C 168.297 137.885,168.606 139.751,169.025 147.981 C 169.231 152.009,169.563 156.235,169.764 157.371 C 169.964 158.507,170.293 160.535,170.494 161.878 C 170.816 164.024,171.879 170.369,172.760 175.399 C 172.923 176.329,173.264 178.441,173.518 180.094 C 174.168 184.329,174.091 184.194,175.333 183.276 C 180.637 179.354,190.445 185.074,195.342 194.944 C 198.680 201.673,197.139 211.877,192.292 215.131 C 190.451 216.367,190.463 216.392,193.703 218.099 C 203.539 223.279,223.928 226.622,235.609 224.970 C 242.192 224.039,246.761 223.096,246.761 222.669 C 246.761 222.311,250.257 220.475,250.973 220.458 C 252.405 220.422,252.842 219.479,252.038 218.161 C 250.445 215.547,251.036 214.842,254.994 214.630 L 257.406 214.500 259.242 212.049 C 264.469 205.070,274.796 199.792,285.070 198.849 C 286.620 198.707,288.083 198.485,288.322 198.356 C 290.036 197.433,297.840 184.835,297.840 182.993 C 297.840 182.842,296.700 182.720,295.305 182.721 C 288.754 182.726,281.315 173.171,281.315 164.751 C 281.315 159.250,285.621 150.855,289.442 148.908 C 290.239 148.502,290.958 148.131,291.038 148.085 C 291.119 148.039,290.208 146.535,289.015 144.741 C 285.627 139.651,282.534 132.755,280.903 126.657 C 278.812 118.840,276.541 114.121,272.958 110.150 C 271.563 108.605,270.423 107.189,270.423 107.003 C 270.423 106.243,271.292 106.791,273.720 109.082 L 276.281 111.497 280.957 109.513 C 287.356 106.797,301.327 100.104,302.535 99.175 C 302.742 99.017,304.601 97.994,306.667 96.904 C 316.453 91.736,318.173 90.180,320.330 84.545 C 323.162 77.147,325.235 58.794,323.442 57.001 C 322.624 56.183,300.676 65.866,287.512 72.852 C 285.446 73.949,282.319 75.606,280.563 76.535 C 278.808 77.464,276.526 78.772,275.493 79.442 C 274.460 80.111,271.333 82.049,268.545 83.748 C 262.096 87.675,254.289 92.893,251.477 95.156 L 250.372 96.044 251.665 96.426 C 255.550 97.574,256.199 97.823,256.608 98.314 C 257.156 98.975,253.757 98.674,250.704 97.791 C 243.724 95.773,235.450 95.940,220.469 98.400 C 216.358 99.075,209.390 100.922,204.131 102.730 C 196.649 105.303,183.819 113.615,176.461 120.657 C 176.084 121.019,175.611 121.315,175.411 121.315 C 174.592 121.315,175.679 119.819,178.824 116.619 L 182.147 113.238 181.782 110.023 C 181.427 106.900,180.233 98.208,179.549 93.773 C 178.902 89.572,175.557 76.676,173.297 69.671 C 173.031 68.845,172.286 66.479,171.642 64.413 C 170.533 60.857,168.067 54.575,167.559 54.012 C 167.430 53.869,166.225 54.348,164.883 55.075 M268.983 129.737 C 273.998 131.833,276.374 137.913,274.175 143.024 C 271.533 149.165,262.462 150.876,257.527 146.164 C 249.315 138.324,258.390 125.311,268.983 129.737 M199.115 151.083 C 209.729 157.350,203.244 172.808,191.351 169.589 C 181.541 166.933,181.092 153.954,190.686 150.378 C 192.926 149.544,197.099 149.893,199.115 151.083 M233.907 153.073 C 235.007 153.844,234.960 154.217,233.707 154.653 C 232.398 155.110,230.986 154.610,230.986 153.690 C 230.986 152.345,232.432 152.040,233.907 153.073 M257.851 158.139 C 258.176 158.665,257.113 160.301,255.515 161.734 C 254.253 162.864,254.223 162.953,254.629 164.363 C 257.451 174.162,256.464 192.213,252.674 200.122 C 245.815 214.433,236.240 212.650,224.289 194.837 C 220.554 189.270,216.398 180.790,215.221 176.338 C 214.563 173.848,214.541 173.833,212.421 174.471 C 210.562 175.030,206.753 175.213,205.665 174.795 C 205.071 174.568,204.819 173.532,205.352 173.509 C 215.372 173.081,230.380 165.322,231.558 159.961 C 231.861 158.581,232.118 158.596,234.693 160.149 C 241.730 164.393,250.218 164.305,254.808 159.941 C 257.210 157.657,257.461 157.509,257.851 158.139 M146.667 182.341 C 145.634 182.601,143.859 183.174,142.723 183.613 C 140.164 184.604,140.082 184.603,140.192 183.588 C 140.281 182.766,137.549 181.831,136.661 182.380 C 136.178 182.678,136.282 185.025,136.908 187.981 C 137.594 191.221,137.595 191.174,136.874 191.174 C 136.540 191.174,136.008 190.522,135.653 189.675 C 134.859 187.784,135.155 187.682,131.697 191.036 C 128.794 193.851,128.528 194.534,130.329 194.546 C 132.748 194.563,135.697 196.625,134.733 197.626 C 132.131 200.331,132.104 200.969,134.554 201.836 C 137.028 202.710,137.203 203.000,136.310 204.750 C 135.232 206.863,135.313 206.965,137.845 206.701 C 139.686 206.508,140.236 206.585,140.823 207.116 C 141.219 207.474,141.850 207.685,142.227 207.584 C 143.065 207.360,145.486 210.067,149.064 215.231 C 154.746 223.432,166.264 236.128,174.648 243.431 C 185.558 252.935,187.755 254.749,193.821 259.265 C 198.042 262.407,202.213 263.950,205.333 263.522 C 206.560 263.354,206.948 263.425,206.948 263.817 C 206.948 265.492,200.950 264.957,196.690 262.901 C 194.087 261.645,194.302 261.206,194.012 268.357 C 193.785 273.925,193.111 280.507,192.318 284.883 C 191.018 292.060,190.632 293.908,189.647 297.653 C 189.050 299.925,188.228 302.883,187.820 304.225 C 182.000 323.415,181.032 329.431,182.667 336.236 C 183.467 339.567,187.866 345.134,190.344 345.952 C 192.035 346.510,191.413 347.175,188.489 347.933 C 181.775 349.675,170.812 355.207,167.200 358.676 C 165.483 360.324,165.951 360.514,167.956 358.983 C 171.213 356.497,178.133 353.427,180.479 353.427 C 181.717 353.427,180.352 354.428,177.928 355.298 C 173.036 357.054,166.385 361.356,166.385 362.765 C 166.385 364.152,168.120 364.420,169.481 363.242 C 173.815 359.492,185.520 354.505,186.451 356.011 C 186.563 356.193,185.452 356.728,183.981 357.201 C 180.808 358.221,173.046 362.040,171.474 363.354 L 170.365 364.280 171.404 364.675 C 173.999 365.662,180.990 364.795,192.113 362.107 C 197.696 360.757,198.663 360.529,203.568 359.400 C 212.999 357.228,215.417 355.050,212.145 351.673 C 211.110 350.606,211.040 350.414,211.604 350.198 C 212.320 349.923,214.294 351.562,214.669 352.742 C 214.992 353.762,216.112 353.606,221.466 351.797 C 232.651 348.019,234.251 347.493,235.681 347.119 C 236.507 346.903,237.859 346.552,238.685 346.339 C 244.810 344.759,257.757 343.967,269.752 344.440 C 273.942 344.605,281.005 344.840,285.446 344.963 C 294.797 345.221,296.616 345.377,298.238 346.059 C 300.032 346.814,298.499 347.091,294.178 346.794 C 292.055 346.649,290.704 346.695,290.704 346.915 C 290.704 347.686,297.453 350.452,304.789 352.687 C 308.712 353.882,315.192 354.550,322.889 354.552 C 333.104 354.555,333.749 353.992,325.446 352.323 C 323.174 351.867,320.333 351.294,319.132 351.052 C 317.932 350.809,317.002 350.441,317.067 350.235 C 317.329 349.390,327.387 350.905,332.164 352.510 C 335.161 353.516,337.023 353.504,337.418 352.476 C 337.744 351.625,333.245 349.931,323.885 347.381 C 321.657 346.774,320.875 346.406,321.018 346.032 C 321.127 345.749,321.491 345.593,321.829 345.684 C 322.166 345.776,323.371 346.050,324.507 346.293 C 329.145 347.285,335.696 349.343,337.164 350.269 C 338.436 351.071,338.633 350.200,337.529 348.650 C 335.921 346.389,332.776 344.083,328.451 341.992 C 324.880 340.267,323.202 339.723,319.030 338.943 C 318.553 338.854,317.251 339.452,315.687 340.479 C 313.086 342.188,310.545 343.147,309.815 342.696 C 309.594 342.559,310.611 341.797,312.076 341.003 C 318.438 337.551,323.669 331.289,326.217 324.076 C 327.927 319.238,327.226 309.712,324.440 299.906 C 324.029 298.460,323.553 296.770,323.383 296.150 C 321.271 288.453,319.275 283.479,313.390 271.249 C 312.068 268.502,310.986 266.194,310.986 266.122 C 310.986 266.049,310.302 264.494,309.466 262.666 C 308.629 260.838,307.795 259.005,307.611 258.592 C 307.032 257.291,304.700 251.146,304.189 249.577 C 303.397 247.145,303.059 246.930,300.829 247.444 C 292.924 249.269,277.661 247.249,270.047 243.370 C 267.536 242.090,266.479 241.905,261.367 241.845 C 256.550 241.789,256.191 241.636,256.819 239.900 C 257.071 239.203,257.277 238.517,257.277 238.377 C 257.277 238.237,255.920 238.122,254.261 238.122 C 250.590 238.122,250.301 237.756,251.767 234.955 C 253.044 232.516,253.068 232.598,251.093 232.640 C 248.231 232.702,247.948 231.965,249.757 229.167 C 251.306 226.769,251.552 226.103,250.888 226.103 C 250.679 226.103,249.750 225.747,248.823 225.311 C 247.711 224.788,246.722 224.586,245.916 224.717 C 232.738 226.854,226.279 227.307,220.876 226.473 C 219.516 226.263,217.221 225.915,215.775 225.700 C 208.652 224.642,201.242 222.868,197.746 221.385 C 197.127 221.122,195.859 220.605,194.930 220.236 C 183.629 215.753,174.553 205.872,172.194 195.485 C 170.485 187.960,155.329 180.156,146.667 182.341 M287.324 199.995 C 285.155 200.252,282.958 200.562,282.441 200.682 C 275.958 202.195,274.251 202.767,270.298 204.751 C 265.790 207.013,261.938 210.352,259.463 214.146 C 258.223 216.045,257.643 216.325,254.930 216.333 C 252.892 216.339,252.774 216.591,254.085 218.147 C 255.689 220.054,255.496 220.263,250.047 222.524 C 249.272 222.846,248.638 223.234,248.638 223.388 C 248.638 223.688,251.288 224.601,252.159 224.601 C 253.272 224.601,254.416 225.906,253.823 226.500 C 252.976 227.350,250.892 230.313,250.892 230.667 C 250.892 230.842,251.906 230.986,253.146 230.986 C 255.819 230.986,255.925 231.257,254.272 233.863 C 252.771 236.230,252.683 236.128,256.500 236.430 C 260.038 236.710,260.670 237.092,259.704 238.367 C 258.609 239.814,258.969 240.000,262.863 240.000 C 266.530 240.000,266.613 240.020,270.468 241.856 C 278.501 245.681,282.371 246.528,291.831 246.533 C 299.247 246.537,299.987 246.445,306.103 244.768 C 330.717 238.017,334.398 214.498,312.452 204.211 C 307.092 201.698,296.154 199.180,291.906 199.482 C 291.555 199.507,289.493 199.738,287.324 199.995 M128.263 212.405 C 128.056 212.481,126.197 212.714,124.131 212.921 C 118.531 213.484,110.255 214.752,106.854 215.567 C 86.244 220.509,75.209 223.788,63.474 228.455 C 60.892 229.482,58.019 230.623,57.089 230.989 C 54.202 232.128,41.433 237.526,34.822 240.402 C 30.816 242.145,28.556 243.324,28.625 243.635 C 28.731 244.118,29.639 245.215,41.433 259.106 C 48.334 267.233,62.565 282.441,63.270 282.441 C 63.710 282.441,64.794 282.010,71.487 279.169 C 72.693 278.658,74.129 278.101,74.680 277.933 C 75.230 277.764,78.385 276.669,81.690 275.499 C 101.389 268.525,117.403 264.772,132.829 263.514 C 135.097 263.329,134.643 262.721,141.787 275.493 C 142.364 276.526,144.863 281.343,147.339 286.197 C 149.815 291.052,151.969 295.074,152.125 295.135 C 152.281 295.197,154.412 294.409,156.862 293.385 C 164.678 290.116,165.239 290.082,165.252 292.876 C 165.260 294.479,166.056 296.312,167.204 297.369 L 168.120 298.213 168.806 294.834 C 169.656 290.646,170.178 290.475,172.259 293.706 C 174.236 296.774,174.243 296.766,174.740 290.895 C 174.891 289.116,175.939 289.255,177.339 291.242 C 178.004 292.186,178.677 292.958,178.835 292.958 C 179.204 292.958,179.558 290.307,180.440 280.939 C 180.527 280.009,180.806 277.429,181.059 275.204 C 181.620 270.276,181.797 270.456,177.559 271.665 C 161.339 276.294,162.822 276.093,162.437 273.707 C 162.296 272.830,161.762 270.592,161.250 268.732 C 160.738 266.873,160.184 264.761,160.017 264.038 C 159.851 263.315,159.086 260.695,158.318 258.216 C 154.446 245.729,149.656 227.706,148.189 220.102 C 147.609 217.099,146.300 214.335,144.701 212.736 C 144.210 212.245,129.496 211.949,128.263 212.405 " stroke="none" fill="#fbd41c" fill-rule="evenodd"></path><path id="path1" d="M151.448 21.127 C 149.996 22.918,148.589 29.899,146.281 46.770 C 144.916 56.745,145.543 74.832,147.574 84.117 C 147.779 85.054,148.309 87.512,148.752 89.577 C 150.242 96.539,159.141 125.184,162.986 135.399 C 168.737 150.677,168.486 149.799,168.609 155.099 C 168.627 155.903,168.771 156.259,168.988 156.038 C 169.203 155.818,169.135 152.583,168.811 147.606 C 168.521 143.164,168.280 139.394,168.274 139.227 C 168.229 137.971,167.512 139.768,167.512 141.136 C 167.512 144.925,166.769 143.073,159.269 120.563 C 151.926 98.526,150.632 94.062,149.032 85.258 C 147.099 74.622,148.799 68.983,156.289 61.182 C 159.911 57.409,167.236 52.863,167.845 54.010 C 170.791 59.550,177.879 83.423,179.700 93.942 C 180.607 99.178,181.747 107.422,182.009 110.630 L 182.255 113.654 180.328 115.302 C 178.047 117.253,175.224 120.513,175.541 120.831 C 175.664 120.954,177.077 119.871,178.681 118.424 C 183.911 113.704,192.025 108.310,199.624 104.502 C 207.544 100.533,227.599 96.141,237.746 96.153 C 241.609 96.158,248.328 96.967,251.591 97.821 C 252.904 98.164,254.425 98.393,254.971 98.328 L 255.962 98.211 255.062 97.701 C 254.567 97.421,253.397 97.000,252.462 96.765 C 251.527 96.530,250.703 96.157,250.630 95.936 C 250.459 95.411,261.364 87.933,269.484 83.007 C 272.995 80.877,276.291 78.842,276.808 78.486 C 277.870 77.753,281.287 75.915,289.202 71.820 C 297.432 67.561,299.216 66.683,303.099 64.976 C 305.061 64.113,307.343 63.099,308.169 62.723 C 316.122 59.103,322.427 56.620,323.262 56.780 C 326.566 57.413,322.247 83.956,317.916 89.635 C 315.532 92.760,297.270 102.692,281.000 109.712 C 276.116 111.819,275.980 111.841,275.028 110.704 C 273.694 109.109,271.187 106.903,270.964 107.127 C 270.840 107.250,271.809 108.517,273.116 109.943 C 275.975 113.060,278.079 117.123,279.979 123.192 C 280.723 125.568,281.782 128.939,282.332 130.684 C 283.614 134.754,287.541 142.641,289.722 145.526 C 291.381 147.722,291.515 148.732,290.148 148.732 C 286.956 148.732,281.060 160.034,281.430 165.446 C 282.073 174.869,290.828 184.284,297.183 182.387 C 297.914 182.168,298.216 182.212,298.216 182.537 C 298.216 183.190,295.043 189.443,293.706 191.423 C 293.088 192.340,292.582 193.172,292.582 193.274 C 292.582 193.376,292.414 193.663,292.210 193.913 C 292.005 194.162,291.066 195.338,290.123 196.526 C 288.815 198.175,288.175 198.685,287.420 198.685 C 277.350 198.685,264.407 205.302,258.093 213.677 C 257.269 214.770,257.077 214.836,254.694 214.836 C 251.091 214.836,250.546 215.546,252.237 218.038 C 253.341 219.663,253.266 219.772,250.329 220.790 C 249.502 221.076,248.150 221.787,247.324 222.370 C 246.197 223.164,244.930 223.577,242.254 224.022 C 240.291 224.348,237.870 224.781,236.873 224.984 C 234.550 225.456,221.094 225.464,218.714 224.995 C 217.717 224.798,215.634 224.436,214.085 224.190 C 212.535 223.944,209.746 223.420,207.887 223.025 C 206.028 222.630,204.085 222.218,203.568 222.111 C 203.052 222.003,202.291 221.770,201.878 221.593 C 201.465 221.415,200.028 220.902,198.685 220.452 C 195.750 219.467,190.423 216.683,190.423 216.132 C 190.423 215.915,191.013 215.524,191.735 215.263 C 195.214 214.005,197.879 206.093,196.832 200.132 C 195.711 193.748,189.855 185.842,184.413 183.368 C 181.505 182.046,177.002 181.956,175.684 183.195 C 174.281 184.513,174.053 184.259,173.495 180.751 C 172.854 176.727,172.560 178.339,173.077 183.041 C 173.343 185.464,173.304 186.704,172.915 188.205 C 172.405 190.169,172.513 191.070,173.137 190.060 C 173.317 189.770,173.568 188.930,173.695 188.193 C 174.316 184.607,175.509 183.660,179.401 183.666 C 188.323 183.678,197.225 196.337,195.350 206.345 C 193.905 214.059,189.877 216.535,184.883 212.781 C 181.383 210.150,175.399 202.940,175.399 201.354 C 175.399 201.121,175.087 200.214,174.706 199.339 C 173.628 196.862,173.191 195.300,172.916 192.938 C 172.719 191.251,172.539 190.806,172.117 190.968 C 171.805 191.088,171.143 190.718,170.565 190.099 C 164.561 183.672,151.280 179.245,144.590 181.441 L 142.201 182.226 139.519 181.429 C 135.747 180.310,135.241 180.642,135.008 184.393 C 134.905 186.038,134.741 186.256,130.690 190.124 C 126.024 194.579,125.830 195.105,128.711 195.501 C 133.136 196.110,133.567 196.619,131.831 199.191 C 130.352 201.382,130.985 202.817,133.431 202.817 C 135.053 202.817,135.336 203.723,134.330 205.707 C 133.145 208.047,133.173 208.075,136.689 208.075 C 139.521 208.075,142.347 209.207,142.347 210.342 C 142.347 210.771,142.664 210.751,136.526 210.711 C 132.107 210.683,126.763 211.145,119.021 212.225 C 117.494 212.438,115.146 212.760,113.803 212.940 C 111.186 213.292,105.753 214.406,101.784 215.405 C 100.441 215.743,98.751 216.153,98.028 216.315 C 90.749 217.955,69.860 224.259,66.291 225.894 C 65.671 226.178,61.869 227.709,57.840 229.296 C 53.812 230.883,50.009 232.398,49.390 232.662 C 48.770 232.927,47.164 233.613,45.822 234.186 C 44.479 234.759,42.535 235.610,41.502 236.077 C 40.469 236.544,37.174 237.958,34.178 239.220 C 31.183 240.482,28.439 241.681,28.080 241.884 C 27.722 242.087,27.172 242.254,26.860 242.254 C 26.547 242.254,26.291 242.480,26.291 242.756 C 26.291 243.266,26.650 243.722,31.362 249.207 C 32.808 250.890,34.329 252.702,34.742 253.233 C 41.018 261.308,62.440 284.534,63.271 284.166 C 66.959 282.531,75.380 279.114,78.122 278.139 C 84.620 275.829,92.557 273.144,94.272 272.675 C 95.202 272.421,96.385 272.070,96.901 271.896 C 97.418 271.721,100.207 270.972,103.099 270.231 C 105.991 269.489,108.948 268.728,109.671 268.539 C 113.418 267.560,122.102 265.913,125.513 265.536 C 127.645 265.299,130.342 264.981,131.506 264.827 C 134.247 264.465,134.129 264.350,137.639 270.798 C 143.239 281.085,144.258 283.021,147.678 289.859 C 149.586 293.674,151.331 296.714,151.614 296.714 C 151.893 296.714,154.422 295.784,157.233 294.648 C 162.491 292.523,163.680 292.239,163.916 293.052 C 163.992 293.310,164.257 295.465,164.506 297.840 C 164.895 301.549,165.441 304.862,167.167 313.991 C 167.343 314.920,167.603 316.441,167.745 317.371 C 168.055 319.400,168.415 319.701,169.717 319.022 C 170.260 318.738,172.394 317.729,174.460 316.779 C 176.526 315.830,179.339 314.476,180.712 313.770 C 184.548 311.800,184.513 311.744,182.944 317.371 C 179.337 330.308,180.477 337.796,187.156 345.054 C 187.955 345.923,188.500 346.810,188.367 347.026 C 187.980 347.652,190.270 347.491,190.798 346.854 C 191.187 346.386,191.141 346.291,190.530 346.291 C 189.655 346.291,186.774 343.533,184.658 340.668 C 181.234 336.033,180.787 327.564,183.477 318.310 C 183.777 317.277,185.031 313.051,186.264 308.920 C 188.539 301.292,190.305 294.741,190.818 292.019 C 192.885 281.063,193.076 279.587,193.832 268.638 C 194.338 261.314,194.339 261.312,196.301 262.509 C 199.141 264.240,206.573 265.343,206.573 264.033 C 206.573 263.868,205.920 263.821,205.122 263.928 C 202.936 264.221,198.715 262.730,195.344 260.473 C 185.263 253.725,163.917 234.369,156.615 225.352 C 152.774 220.610,148.930 215.514,147.407 213.146 C 145.243 209.779,143.135 207.676,142.169 207.919 C 141.659 208.047,141.129 207.845,140.686 207.356 C 140.089 206.696,139.703 206.625,137.792 206.825 C 135.376 207.077,134.894 206.505,136.138 204.861 C 137.185 203.476,136.846 202.906,134.460 202.036 C 131.826 201.075,131.792 200.959,133.521 198.849 C 135.567 196.352,135.310 195.938,131.080 194.916 C 128.123 194.201,128.121 194.218,131.462 190.953 C 134.884 187.608,135.122 187.456,135.434 188.419 C 136.105 190.490,136.481 191.174,136.947 191.174 C 137.582 191.174,137.584 191.294,136.901 188.672 C 136.225 186.074,136.152 182.284,136.775 182.077 C 137.731 181.758,140.660 182.807,140.547 183.429 C 140.401 184.234,140.502 184.220,144.351 182.911 C 148.870 181.374,152.802 181.515,157.961 183.399 C 164.166 185.664,172.019 191.383,172.019 193.636 C 172.019 201.116,180.160 212.039,189.671 217.322 C 191.427 218.297,193.418 219.404,194.096 219.782 C 194.774 220.160,195.494 220.469,195.696 220.469 C 195.899 220.469,196.781 220.781,197.657 221.163 C 204.602 224.186,217.415 226.441,227.606 226.435 C 233.814 226.431,240.067 225.804,245.232 224.668 C 246.470 224.395,247.190 224.430,248.048 224.802 C 248.683 225.077,249.751 225.524,250.423 225.795 C 251.938 226.406,251.949 226.294,250.141 228.875 C 247.967 231.977,248.158 232.488,251.486 232.488 C 253.465 232.488,253.440 232.354,251.954 234.987 C 250.430 237.688,250.839 238.122,254.907 238.122 C 257.792 238.122,258.042 238.306,257.105 239.735 C 256.181 241.146,256.811 241.376,262.328 241.634 C 267.108 241.858,267.750 241.974,269.652 242.959 C 273.394 244.897,277.765 246.270,284.161 247.517 C 286.192 247.913,292.585 247.877,301.744 247.416 L 303.583 247.324 304.593 250.141 C 305.149 251.690,305.732 253.296,305.889 253.709 C 306.046 254.122,306.527 255.390,306.957 256.526 C 307.387 257.662,308.469 260.171,309.362 262.100 C 310.255 264.030,310.986 265.656,310.986 265.713 C 310.986 265.770,311.977 267.909,313.189 270.467 C 317.664 279.915,318.498 281.709,318.498 281.889 C 318.498 281.991,318.855 282.875,319.293 283.854 C 319.730 284.833,320.329 286.184,320.625 286.856 C 321.379 288.568,324.857 300.229,325.956 304.729 C 326.201 305.730,326.653 308.856,326.961 311.678 C 327.270 314.499,327.594 317.005,327.681 317.247 C 328.051 318.266,326.380 324.618,325.061 327.205 C 321.788 333.628,318.211 337.629,313.085 340.601 C 310.618 342.032,310.236 342.371,310.968 342.476 C 311.897 342.609,313.887 341.641,316.394 339.834 C 319.266 337.766,327.804 340.291,333.965 345.030 C 338.168 348.263,340.290 351.964,336.977 350.284 C 333.211 348.374,322.104 345.539,321.348 346.295 C 321.103 346.540,321.199 346.667,321.630 346.667 C 321.990 346.667,323.418 347.012,324.804 347.435 C 326.190 347.857,328.000 348.386,328.826 348.609 C 333.894 349.979,337.653 351.607,337.653 352.433 C 337.653 353.655,335.300 353.724,331.815 352.604 C 327.903 351.347,321.967 350.322,319.590 350.492 C 318.188 350.592,318.624 350.744,322.441 351.483 C 326.443 352.257,330.042 353.106,331.612 353.645 C 334.865 354.761,316.254 355.070,310.235 354.000 C 303.355 352.776,289.929 347.992,290.551 346.986 C 290.660 346.810,292.555 346.660,294.764 346.652 C 301.454 346.627,297.975 345.652,290.261 345.390 C 286.890 345.275,279.315 344.993,273.427 344.763 C 253.441 343.981,238.730 345.309,231.549 348.543 C 231.136 348.729,227.372 350.030,223.185 351.435 L 215.572 353.989 214.048 352.206 C 213.210 351.225,212.252 350.423,211.919 350.423 C 211.459 350.423,211.554 350.672,212.317 351.469 C 216.178 355.498,213.469 357.314,198.498 360.738 C 196.586 361.175,190.226 362.653,184.601 363.967 C 181.628 364.662,177.804 365.112,174.612 365.142 C 169.534 365.190,169.252 364.553,173.240 362.042 C 175.830 360.411,176.599 360.014,180.094 358.499 C 183.933 356.835,183.951 356.825,182.911 356.822 C 180.461 356.813,173.544 360.150,169.877 363.108 C 168.185 364.472,167.087 364.504,166.394 363.210 C 165.629 361.779,172.152 357.143,177.825 355.085 C 181.070 353.908,180.839 353.313,177.533 354.334 C 174.523 355.262,169.127 358.057,167.369 359.599 C 165.793 360.980,165.348 360.332,166.822 358.801 C 169.198 356.331,175.153 352.878,181.596 350.232 C 183.455 349.469,185.315 348.701,185.728 348.526 C 186.141 348.351,186.817 348.120,187.230 348.013 C 187.643 347.906,187.221 347.904,186.291 348.008 C 180.259 348.686,166.455 356.253,165.030 359.663 C 162.299 366.200,172.471 368.198,188.732 364.319 C 190.385 363.925,194.357 362.997,197.559 362.258 C 200.761 361.518,203.899 360.750,204.534 360.551 C 205.168 360.351,205.961 360.188,206.296 360.188 C 207.988 360.188,212.364 358.111,213.934 356.563 C 214.846 355.665,215.821 354.930,216.103 354.930 C 216.691 354.930,221.182 353.467,228.093 351.024 C 237.273 347.779,239.612 347.251,250.516 345.964 C 254.844 345.453,268.330 345.449,278.449 345.956 L 286.759 346.372 289.389 347.968 C 293.640 350.547,299.286 352.731,306.291 354.506 C 317.402 357.322,337.950 356.108,339.576 352.539 C 341.286 348.786,333.041 341.333,325.182 339.527 C 324.088 339.276,322.804 338.920,322.330 338.737 C 321.855 338.554,320.986 338.404,320.398 338.404 C 319.156 338.404,318.659 337.547,319.496 336.852 C 320.394 336.107,323.380 332.124,323.380 331.672 C 323.380 331.449,323.524 331.268,323.699 331.268 C 325.375 331.268,328.502 320.639,328.097 316.318 C 327.948 314.728,327.755 312.498,327.667 311.362 C 327.341 307.117,324.827 296.021,323.733 293.996 C 323.539 293.637,323.380 293.026,323.380 292.637 C 323.380 292.249,323.055 291.106,322.658 290.097 C 322.261 289.088,321.473 286.995,320.906 285.446 C 320.340 283.897,318.975 280.710,317.872 278.365 C 316.770 276.020,315.869 274.057,315.869 274.002 C 315.869 273.947,314.595 271.218,313.038 267.937 C 311.482 264.656,310.062 261.634,309.884 261.221 C 309.706 260.808,309.289 259.836,308.958 259.061 C 308.628 258.286,308.118 257.103,307.826 256.432 C 306.676 253.790,304.601 247.832,304.601 247.173 C 304.601 246.452,304.774 246.364,309.108 244.874 C 321.073 240.762,327.700 233.067,327.700 223.286 L 327.700 218.404 326.264 215.466 C 321.618 205.957,309.995 199.934,294.178 198.839 C 290.504 198.584,289.459 198.141,290.710 197.367 C 292.999 195.952,298.855 184.402,300.899 177.268 C 303.499 168.198,300.579 154.869,294.885 149.818 C 289.951 145.441,284.823 136.160,282.040 126.573 C 280.547 121.427,279.757 119.276,278.275 116.326 C 277.468 114.719,276.808 113.328,276.808 113.236 C 276.808 113.033,279.834 111.549,280.247 111.549 C 280.409 111.549,281.433 111.146,282.524 110.652 C 283.615 110.159,285.318 109.391,286.309 108.945 C 322.084 92.848,349.451 71.678,364.998 48.075 C 370.713 39.399,370.701 38.521,364.894 40.355 C 364.061 40.618,362.282 41.135,360.939 41.503 C 354.268 43.334,342.911 47.321,326.385 53.633 C 319.863 56.124,316.853 57.363,311.549 59.740 C 310.723 60.111,306.836 61.850,302.911 63.605 C 296.039 66.679,294.158 67.606,284.695 72.583 C 277.794 76.212,276.965 76.693,268.438 82.011 C 263.982 84.790,257.578 89.040,254.206 91.455 L 248.075 95.847 246.009 95.612 C 239.792 94.904,235.268 94.944,229.671 95.756 C 208.211 98.873,200.554 101.615,184.496 111.938 C 183.292 112.711,183.019 112.133,182.731 108.192 C 182.221 101.223,180.417 90.370,178.732 84.131 C 178.313 82.582,177.828 80.723,177.654 80.000 C 176.710 76.086,174.963 69.998,174.261 68.169 C 174.102 67.756,173.680 66.404,173.323 65.164 C 172.162 61.137,168.157 50.712,165.820 45.634 C 160.923 34.994,156.198 26.119,153.572 22.629 C 151.921 20.435,151.977 20.475,151.448 21.127 M260.094 130.100 C 252.386 133.608,252.873 145.279,260.845 148.077 C 267.968 150.577,274.628 146.199,274.702 138.967 C 274.778 131.565,267.106 126.908,260.094 130.100 M262.195 131.286 C 266.538 133.532,265.035 141.539,260.432 140.675 C 256.701 139.975,256.141 133.729,259.610 131.507 C 261.094 130.558,260.830 130.580,262.195 131.286 M295.037 151.807 C 296.344 153.085,297.696 154.818,298.041 155.657 C 298.385 156.496,298.904 157.738,299.193 158.416 C 299.482 159.095,299.722 160.024,299.727 160.482 C 299.732 160.940,300.070 162.571,300.478 164.106 C 301.621 168.404,301.386 172.924,299.754 177.999 C 296.808 187.159,282.817 176.194,282.817 164.725 C 282.817 158.635,288.304 149.492,291.964 149.485 C 292.347 149.484,293.729 150.529,295.037 151.807 M191.531 150.371 C 179.945 153.495,182.205 169.765,194.224 169.765 C 203.230 169.765,207.739 159.142,201.361 152.952 C 198.670 150.341,195.109 149.406,191.531 150.371 M198.058 152.262 C 200.511 154.714,199.978 158.324,196.926 159.941 C 194.846 161.043,191.674 159.730,190.586 157.317 C 188.567 152.839,194.573 148.776,198.058 152.262 M231.362 153.052 C 230.451 154.149,232.106 155.153,233.772 154.514 C 234.662 154.172,234.489 153.416,233.410 152.924 C 232.168 152.359,231.924 152.374,231.362 153.052 M169.597 160.312 C 169.687 162.239,169.940 164.098,170.158 164.443 C 170.596 165.135,170.429 162.651,169.785 158.873 C 169.476 157.059,169.453 157.234,169.597 160.312 M255.211 159.732 C 250.872 164.353,241.368 164.563,234.529 160.188 C 232.410 158.832,232.383 158.838,231.352 160.890 C 228.846 165.879,214.483 173.506,207.574 173.517 C 205.693 173.520,205.050 173.646,205.164 173.989 C 205.401 174.700,207.996 174.981,210.516 174.569 C 214.566 173.907,214.502 173.890,215.131 175.775 C 220.881 193.010,233.619 209.570,241.127 209.570 C 246.896 209.570,252.471 202.986,254.954 193.239 C 256.746 186.209,256.293 167.900,254.224 163.712 C 254.003 163.266,254.418 162.606,255.788 161.221 C 257.584 159.407,258.165 158.117,257.183 158.127 C 256.925 158.130,256.038 158.852,255.211 159.732 M170.541 166.792 C 170.572 168.483,171.380 172.261,171.793 172.651 C 171.976 172.823,171.997 172.301,171.841 171.455 C 171.688 170.629,171.441 169.066,171.291 167.982 C 170.972 165.676,170.506 164.937,170.541 166.792 M252.159 170.121 C 254.281 170.613,254.275 170.594,254.518 177.307 C 254.811 185.418,253.991 193.183,252.438 196.995 C 249.649 203.846,244.944 208.436,240.700 208.447 C 237.037 208.457,229.530 200.848,223.732 191.249 C 221.405 187.396,217.840 179.593,218.099 178.918 C 218.694 177.367,227.799 173.049,234.366 171.204 C 238.783 169.962,248.838 169.350,252.159 170.121 M172.045 175.095 C 172.031 176.064,172.188 176.962,172.394 177.089 C 172.853 177.373,172.853 175.152,172.394 174.085 C 172.151 173.518,172.065 173.765,172.045 175.095 M298.404 200.001 C 337.604 205.844,336.575 242.269,297.089 246.556 C 287.146 247.635,278.122 245.987,269.217 241.465 C 267.253 240.467,266.740 240.376,263.102 240.376 C 258.796 240.376,258.002 239.979,259.343 238.498 C 260.612 237.096,259.853 236.620,256.350 236.620 C 252.618 236.620,252.470 236.415,254.272 233.745 C 255.957 231.249,255.831 230.986,252.958 230.986 C 251.615 230.986,250.516 230.890,250.516 230.772 C 250.516 230.413,252.668 227.407,253.302 226.881 C 254.428 225.946,253.938 225.396,251.268 224.601 C 249.000 223.926,247.556 222.723,249.012 222.723 C 249.569 222.723,255.023 220.156,255.023 219.894 C 255.023 219.770,254.601 219.114,254.085 218.437 C 252.611 216.505,253.191 215.962,256.728 215.962 C 257.813 215.962,258.165 215.679,259.638 213.615 C 264.693 206.537,273.549 201.727,284.319 200.211 C 285.869 199.992,287.559 199.752,288.075 199.676 C 290.362 199.341,294.946 199.485,298.404 200.001 M141.509 212.077 L 144.615 212.319 146.298 214.678 C 147.224 215.975,147.981 217.384,147.981 217.808 C 147.981 218.233,148.151 219.302,148.359 220.182 C 148.567 221.063,149.064 223.221,149.464 224.977 C 150.838 231.007,152.952 239.440,153.795 242.254 C 154.260 243.803,154.936 246.169,155.297 247.512 C 155.658 248.854,156.091 250.376,156.261 250.892 C 156.690 252.204,159.115 260.270,159.422 261.408 C 159.562 261.925,160.015 263.531,160.429 264.977 C 161.339 268.152,161.768 269.894,162.373 272.864 C 162.881 275.362,163.272 275.534,166.385 274.626 C 167.108 274.416,170.235 273.550,173.333 272.703 C 176.432 271.856,179.441 270.972,180.021 270.739 C 181.699 270.062,181.823 270.570,181.231 275.693 C 179.816 287.935,179.531 290.627,179.531 291.749 C 179.531 293.408,178.742 293.306,177.277 291.455 C 175.327 288.993,174.795 289.538,174.555 294.243 C 174.430 296.674,173.872 296.763,172.663 294.543 C 170.600 290.752,169.726 290.777,169.020 294.648 C 168.290 298.658,168.191 298.723,166.324 296.449 C 165.614 295.584,165.262 294.608,165.072 292.975 C 164.927 291.726,164.678 290.704,164.517 290.704 C 164.139 290.704,161.157 291.732,160.188 292.196 C 158.789 292.866,153.056 295.142,152.441 295.271 C 151.982 295.367,150.848 293.445,147.851 287.487 C 145.663 283.136,142.430 276.987,140.668 273.823 C 138.906 270.659,137.465 268.005,137.465 267.926 C 137.465 267.847,136.839 266.840,136.075 265.688 L 134.684 263.594 131.286 263.834 C 120.145 264.620,100.292 269.125,86.385 274.022 C 84.836 274.568,81.007 275.909,77.878 277.002 C 74.748 278.096,71.621 279.242,70.929 279.550 C 70.237 279.858,68.657 280.501,67.418 280.980 C 66.178 281.459,64.849 282.055,64.464 282.305 C 63.410 282.990,62.964 282.674,58.601 278.157 C 48.934 268.149,45.565 264.397,36.147 253.146 C 33.640 250.150,30.826 246.854,29.893 245.822 C 27.857 243.566,27.822 243.342,29.390 242.647 C 37.071 239.243,39.567 238.153,43.756 236.370 C 46.441 235.228,50.413 233.563,52.582 232.671 C 54.751 231.779,57.962 230.457,59.718 229.733 C 61.474 229.008,64.347 227.883,66.103 227.232 C 67.859 226.581,69.634 225.914,70.047 225.750 C 71.297 225.252,85.831 220.732,88.263 220.085 C 88.986 219.892,91.437 219.237,93.709 218.629 C 112.670 213.555,129.992 211.181,141.509 212.077 M151.049 220.563 C 155.485 226.824,166.855 238.706,175.775 246.404 C 177.324 247.741,179.099 249.279,179.718 249.821 C 184.194 253.738,185.768 255.028,188.920 257.363 C 190.883 258.817,192.672 260.232,192.897 260.508 C 194.325 262.262,191.726 286.610,189.256 294.610 C 189.071 295.209,188.920 296.067,188.920 296.516 C 188.920 297.748,180.714 303.656,179.998 302.940 C 179.661 302.603,179.827 300.167,180.835 290.704 C 182.384 276.153,182.735 271.843,182.567 269.390 C 182.523 268.740,181.813 268.801,179.674 269.639 C 178.666 270.034,175.812 270.888,173.333 271.536 C 170.854 272.185,168.189 272.960,167.410 273.259 C 165.087 274.151,163.809 273.989,163.553 272.770 C 163.153 270.872,161.421 264.252,160.728 261.972 C 160.351 260.732,159.629 258.366,159.125 256.714 C 158.620 255.061,157.829 252.357,157.366 250.704 C 156.903 249.052,156.060 246.094,155.493 244.131 C 149.888 224.735,148.395 216.819,151.049 220.563 M177.577 294.554 C 178.240 295.653,178.294 296.269,178.121 300.744 C 177.880 306.974,177.883 306.975,182.593 303.756 C 187.398 300.470,187.116 300.598,186.821 301.846 C 186.683 302.432,186.422 303.071,186.243 303.268 C 186.063 303.464,185.915 304.015,185.915 304.493 C 185.915 304.971,185.761 305.656,185.573 306.014 C 185.385 306.373,184.986 307.505,184.688 308.529 C 184.389 309.553,183.909 310.526,183.622 310.689 C 183.055 311.012,174.879 314.893,171.831 316.286 C 170.798 316.759,169.868 317.196,169.763 317.259 C 169.478 317.429,168.638 314.525,168.638 313.366 C 168.638 312.809,168.480 311.835,168.287 311.200 C 167.893 309.905,166.385 300.941,166.385 299.890 C 166.385 299.276,166.467 299.289,167.254 300.028 C 168.712 301.398,170.083 300.248,170.178 297.577 C 170.277 294.800,170.659 294.505,171.751 296.361 C 174.124 300.397,175.588 300.454,175.985 296.526 C 176.355 292.869,176.472 292.724,177.577 294.554 " stroke="none" fill="#221c12" fill-rule="evenodd"></path><path id="path2" d="M0.000 187.793 L 0.000 375.587 200.000 375.587 L 400.000 375.587 400.000 187.793 L 400.000 0.000 200.000 0.000 L 0.000 0.000 0.000 187.793 M154.086 22.337 C 156.327 25.224,162.247 36.398,165.733 44.319 C 168.106 49.709,168.460 50.537,169.026 52.019 C 169.184 52.432,169.559 53.362,169.860 54.085 C 170.160 54.808,170.783 56.413,171.243 57.653 C 171.703 58.892,172.234 60.200,172.424 60.558 C 172.614 60.917,172.770 61.469,172.770 61.784 C 172.770 62.100,172.919 62.651,173.100 63.010 C 173.674 64.142,177.315 75.921,177.772 78.122 C 177.879 78.638,178.329 80.413,178.772 82.066 C 181.364 91.741,182.529 98.140,183.278 106.821 C 183.699 111.690,183.833 111.887,185.750 110.436 C 186.564 109.821,187.349 109.312,187.495 109.306 C 187.641 109.300,188.592 108.805,189.608 108.206 C 201.857 100.984,209.042 98.413,223.286 96.155 C 225.972 95.729,229.109 95.216,230.257 95.014 C 233.174 94.503,243.677 94.556,246.009 95.094 C 247.242 95.379,248.035 95.409,248.197 95.177 C 248.562 94.653,260.869 85.930,263.099 84.614 C 264.131 84.005,266.798 82.379,269.024 81.002 C 271.250 79.625,273.178 78.498,273.308 78.498 C 273.438 78.498,274.067 78.102,274.706 77.619 C 275.346 77.136,277.390 75.930,279.249 74.939 C 281.108 73.949,283.643 72.593,284.883 71.927 C 293.971 67.042,299.472 64.225,299.927 64.225 C 300.063 64.225,301.213 63.736,302.482 63.138 C 308.250 60.421,318.138 56.147,322.441 54.512 C 324.094 53.884,327.652 52.517,330.347 51.474 C 333.043 50.431,335.502 49.577,335.812 49.577 C 336.122 49.577,336.536 49.433,336.732 49.256 C 336.929 49.079,338.019 48.650,339.155 48.303 C 341.174 47.685,342.436 47.198,343.751 46.529 C 344.109 46.346,344.661 46.197,344.977 46.197 C 345.292 46.197,345.844 46.031,346.202 45.828 C 346.859 45.456,357.793 41.837,360.939 40.951 C 361.869 40.689,363.634 40.157,364.862 39.768 C 369.293 38.365,370.609 38.961,369.353 41.804 C 368.142 44.544,360.838 55.402,359.070 57.089 C 358.962 57.192,357.861 58.460,356.624 59.906 C 351.906 65.421,343.485 73.769,339.710 76.675 C 339.095 77.148,337.700 78.375,336.611 79.403 C 331.647 84.083,317.166 93.854,308.169 98.592 C 306.310 99.571,303.521 101.054,301.972 101.887 C 298.302 103.859,298.613 103.703,294.272 105.756 C 285.567 109.873,283.234 110.935,280.563 111.997 C 279.014 112.613,277.691 113.171,277.624 113.238 C 277.557 113.305,278.248 114.938,279.161 116.867 C 280.074 118.797,281.017 121.052,281.257 121.878 C 281.497 122.704,282.117 124.901,282.635 126.761 C 283.750 130.760,284.571 133.112,285.480 134.909 C 289.281 142.421,290.806 144.671,295.235 149.296 C 301.555 155.897,304.273 167.757,301.604 177.089 C 299.691 183.781,297.653 188.178,293.821 193.884 C 292.333 196.100,291.234 197.969,291.379 198.038 C 291.525 198.107,292.742 198.204,294.085 198.253 C 299.491 198.453,303.070 199.092,308.202 200.774 C 334.973 209.545,335.417 237.295,308.920 245.641 C 305.912 246.589,305.352 246.862,305.352 247.381 C 305.352 247.931,306.630 252.016,307.213 253.333 C 307.396 253.746,308.427 256.197,309.504 258.779 C 310.581 261.362,312.301 265.249,313.326 267.418 C 314.351 269.587,315.614 272.291,316.133 273.427 C 316.652 274.563,317.627 276.676,318.299 278.122 C 319.374 280.433,320.410 282.806,322.072 286.761 C 322.332 287.380,322.659 288.310,322.799 288.826 C 322.938 289.343,323.192 290.103,323.364 290.516 C 323.535 290.930,324.392 293.718,325.267 296.714 C 330.878 315.905,329.971 325.187,321.491 335.377 C 319.482 337.790,319.458 337.699,322.254 338.214 C 332.316 340.069,342.577 348.416,340.051 352.692 C 338.584 355.175,335.893 355.954,326.893 356.501 C 312.327 357.387,298.504 354.417,289.001 348.360 C 286.787 346.949,285.988 346.847,272.864 346.293 C 252.546 345.436,242.462 346.632,228.357 351.571 C 225.362 352.620,221.172 354.054,219.046 354.757 C 216.229 355.688,214.941 356.320,214.296 357.086 C 212.727 358.951,209.905 360.003,201.127 361.996 C 195.612 363.247,192.201 364.053,189.671 364.700 C 178.054 367.672,167.239 367.357,164.984 363.982 C 161.937 359.421,169.589 352.612,182.535 348.362 C 184.291 347.786,186.181 347.127,186.736 346.897 L 187.744 346.479 185.877 344.413 C 179.259 337.089,178.558 329.169,183.175 313.897 C 183.435 313.036,183.620 312.982,179.527 314.974 C 177.566 315.928,174.864 317.200,173.521 317.799 C 172.178 318.399,170.631 319.140,170.083 319.445 C 168.864 320.123,167.909 320.158,167.729 319.531 C 167.654 319.272,167.416 318.131,167.200 316.995 C 166.983 315.859,166.532 313.493,166.197 311.737 C 165.565 308.422,165.072 305.727,164.687 303.474 C 164.483 302.278,164.005 298.693,163.500 294.554 C 163.392 293.676,163.279 292.958,163.249 292.958 C 163.108 292.958,158.980 294.521,158.310 294.827 C 152.078 297.674,149.870 297.931,149.857 295.810 C 149.853 295.248,141.374 278.460,139.215 274.742 C 138.255 273.089,137.469 271.599,137.468 271.429 C 137.466 271.260,136.988 270.415,136.406 269.551 C 135.823 268.688,135.127 267.432,134.858 266.761 C 134.335 265.456,134.308 265.444,132.019 265.511 C 124.683 265.727,110.654 268.595,95.962 272.882 C 87.490 275.354,75.434 279.449,72.211 280.949 C 71.335 281.357,70.391 281.690,70.114 281.690 C 69.836 281.690,69.505 281.793,69.379 281.920 C 69.058 282.241,63.370 284.695,62.947 284.695 C 62.605 284.695,60.043 282.135,52.207 273.962 C 44.316 265.734,25.540 243.627,25.540 242.565 C 25.540 242.384,25.920 242.089,26.385 241.911 C 26.850 241.732,28.375 241.060,29.775 240.418 C 31.174 239.775,32.486 239.249,32.691 239.249 C 32.895 239.249,33.355 239.082,33.714 238.879 C 34.508 238.429,39.395 236.244,39.608 236.244 C 39.691 236.244,40.828 235.756,42.133 235.160 C 45.604 233.574,53.042 230.493,56.714 229.120 C 58.469 228.464,60.244 227.783,60.657 227.608 C 64.565 225.952,70.056 223.850,70.475 223.850 C 70.761 223.850,71.290 223.698,71.648 223.513 C 72.007 223.327,73.568 222.801,75.117 222.344 C 76.667 221.886,78.526 221.293,79.249 221.026 C 82.046 219.994,89.610 217.898,99.718 215.356 C 105.819 213.822,110.086 212.894,112.488 212.580 C 113.728 212.418,115.840 212.100,117.183 211.874 C 122.660 210.952,130.093 210.305,135.536 210.278 L 141.307 210.248 140.519 209.460 C 139.832 208.773,139.355 208.685,136.785 208.773 C 132.959 208.903,132.445 208.446,133.645 205.977 C 134.703 203.799,134.684 203.677,133.245 203.361 C 130.151 202.681,129.626 201.291,131.501 198.742 C 132.888 196.855,132.917 196.904,130.101 196.375 C 124.650 195.352,124.649 195.098,130.088 189.978 C 134.350 185.965,134.350 185.965,134.562 183.907 C 134.982 179.842,136.600 179.284,141.490 181.517 C 142.030 181.764,142.491 181.769,142.804 181.533 C 146.360 178.845,157.107 180.278,163.089 184.237 C 163.860 184.747,164.586 185.164,164.702 185.164 C 165.024 185.164,167.101 186.663,169.321 188.497 C 170.667 189.610,171.441 190.024,171.697 189.768 C 172.843 188.622,172.748 182.700,171.470 175.587 C 171.135 173.728,170.618 170.601,170.320 168.638 C 170.021 166.676,169.668 164.648,169.536 164.131 C 169.294 163.193,169.188 162.428,168.071 153.615 C 167.744 151.033,167.167 148.075,166.790 147.042 C 166.413 146.009,165.651 143.897,165.097 142.347 C 163.996 139.269,163.998 139.275,162.280 135.117 C 162.088 134.653,161.416 132.667,160.786 130.704 C 160.157 128.742,158.017 122.319,156.031 116.432 C 154.045 110.545,152.285 105.221,152.119 104.601 C 151.953 103.981,151.199 101.362,150.443 98.779 C 147.851 89.920,147.004 85.513,145.570 73.427 C 144.894 67.725,144.772 52.639,145.372 48.870 C 145.889 45.622,146.350 42.289,146.858 38.122 C 147.589 32.123,149.268 24.417,150.471 21.537 C 151.243 19.691,152.198 19.902,154.086 22.337 M259.314 132.300 C 257.238 134.729,257.047 137.095,258.783 138.911 C 261.238 141.481,264.038 139.970,264.038 136.075 C 264.038 132.370,261.197 130.100,259.314 132.300 M192.196 152.490 C 190.138 154.109,190.553 157.485,193.013 159.141 C 196.956 161.795,201.242 156.404,197.971 152.904 C 196.606 151.442,193.785 151.240,192.196 152.490 M150.374 221.878 C 150.479 222.239,150.834 223.718,151.164 225.164 C 151.495 226.610,151.927 228.385,152.124 229.108 C 152.322 229.831,152.837 231.859,153.269 233.615 C 154.186 237.348,156.291 244.755,160.578 259.343 C 161.732 263.268,162.825 267.155,163.007 267.981 C 164.285 273.764,164.090 273.602,168.263 272.363 C 168.986 272.148,170.676 271.683,172.019 271.329 C 173.362 270.976,176.205 270.107,178.339 269.399 C 180.472 268.690,182.469 268.207,182.776 268.325 C 183.633 268.654,183.359 273.720,181.614 289.765 C 180.077 303.910,179.951 302.754,182.820 300.869 C 184.624 299.684,185.466 299.186,187.742 297.954 C 188.013 297.808,189.274 292.745,189.285 291.759 C 189.291 291.203,189.442 290.658,189.622 290.547 C 189.801 290.436,190.053 289.624,190.181 288.741 C 190.310 287.858,190.589 286.122,190.801 284.883 C 191.766 279.245,192.664 269.377,192.663 264.413 L 192.663 260.845 188.817 257.953 C 186.702 256.363,184.634 254.756,184.223 254.383 C 183.811 254.010,182.460 252.861,181.221 251.829 C 179.981 250.797,178.714 249.700,178.404 249.390 C 178.094 249.080,176.826 247.988,175.587 246.964 C 170.029 242.371,159.666 231.991,155.135 226.479 C 150.547 220.896,149.913 220.284,150.374 221.878 " stroke="none" fill="#ececec" fill-rule="evenodd"></path><path id="path3" d="M323.726 58.122 C 323.906 59.419,323.932 59.445,324.056 58.452 C 324.130 57.859,324.042 57.225,323.861 57.044 C 323.672 56.855,323.614 57.315,323.726 58.122 M156.408 60.939 L 155.305 62.160 156.526 61.056 C 157.664 60.028,157.919 59.718,157.629 59.718 C 157.564 59.718,157.015 60.268,156.408 60.939 M233.709 96.409 C 234.070 96.504,234.662 96.504,235.023 96.409 C 235.385 96.315,235.089 96.237,234.366 96.237 C 233.643 96.237,233.347 96.315,233.709 96.409 M240.286 96.416 C 240.753 96.506,241.429 96.502,241.788 96.408 C 242.148 96.314,241.765 96.241,240.939 96.245 C 240.113 96.249,239.819 96.326,240.286 96.416 M255.544 97.959 C 255.673 98.168,255.567 98.426,255.308 98.532 C 255.048 98.637,255.300 98.699,255.869 98.670 C 257.110 98.605,257.129 98.552,256.105 98.004 C 255.638 97.754,255.406 97.735,255.544 97.959 M263.944 129.091 C 264.408 129.181,265.169 129.181,265.634 129.091 C 266.099 129.002,265.718 128.929,264.789 128.929 C 263.859 128.929,263.479 129.002,263.944 129.091 M254.385 138.967 C 254.385 140.103,254.455 140.568,254.541 140.000 C 254.627 139.432,254.627 138.502,254.541 137.934 C 254.455 137.366,254.385 137.831,254.385 138.967 M167.187 140.773 C 167.151 141.659,167.001 141.935,166.667 141.734 C 166.396 141.571,166.436 141.747,166.761 142.150 C 167.409 142.953,167.728 142.071,167.401 140.376 C 167.286 139.776,167.224 139.892,167.187 140.773 M168.759 145.352 C 168.759 146.695,168.827 147.244,168.910 146.573 C 168.994 145.901,168.994 144.803,168.910 144.131 C 168.827 143.460,168.759 144.009,168.759 145.352 M272.089 145.822 L 270.986 147.042 272.207 145.939 C 272.878 145.332,273.427 144.783,273.427 144.718 C 273.427 144.428,273.117 144.684,272.089 145.822 M290.141 150.189 C 286.457 152.484,282.817 159.710,282.817 164.725 C 282.817 176.194,296.808 187.159,299.754 177.999 C 301.386 172.924,301.621 168.404,300.478 164.106 C 300.070 162.571,299.732 160.940,299.727 160.482 C 299.722 160.024,299.482 159.095,299.193 158.416 C 298.904 157.738,298.385 156.496,298.041 155.657 C 297.311 153.879,292.982 149.483,291.964 149.485 C 291.581 149.486,290.761 149.802,290.141 150.189 M169.101 152.864 C 169.101 153.587,169.179 153.883,169.273 153.521 C 169.367 153.160,169.367 152.568,169.273 152.207 C 169.179 151.845,169.101 152.141,169.101 152.864 M204.422 159.624 C 204.422 160.554,204.495 160.934,204.584 160.469 C 204.674 160.005,204.674 159.244,204.584 158.779 C 204.495 158.315,204.422 158.695,204.422 159.624 M183.764 160.376 C 183.764 161.305,183.838 161.685,183.927 161.221 C 184.017 160.756,184.017 159.995,183.927 159.531 C 183.838 159.066,183.764 159.446,183.764 160.376 M229.463 162.911 L 228.169 164.319 229.577 163.025 C 230.888 161.820,231.159 161.502,230.872 161.502 C 230.809 161.502,230.175 162.136,229.463 162.911 M201.479 166.854 L 200.376 168.075 201.596 166.972 C 202.268 166.365,202.817 165.816,202.817 165.751 C 202.817 165.461,202.507 165.717,201.479 166.854 M193.333 170.030 C 193.798 170.120,194.559 170.120,195.023 170.030 C 195.488 169.941,195.108 169.868,194.178 169.868 C 193.249 169.868,192.869 169.941,193.333 170.030 M238.498 170.352 C 232.408 171.394,226.729 173.464,221.359 176.598 C 217.479 178.863,217.520 178.648,219.939 183.907 C 225.773 196.593,235.813 208.460,240.700 208.447 C 244.944 208.436,249.649 203.846,252.438 196.995 C 254.365 192.264,255.516 172.361,253.954 170.799 C 252.872 169.717,243.750 169.453,238.498 170.352 M209.296 174.907 C 209.657 175.001,210.249 175.001,210.610 174.907 C 210.972 174.812,210.676 174.735,209.953 174.735 C 209.230 174.735,208.934 174.812,209.296 174.907 M175.693 184.315 C 174.594 184.996,174.071 186.028,173.677 188.292 C 173.539 189.083,173.225 189.918,172.979 190.149 C 172.227 190.850,173.165 195.864,174.697 199.339 C 175.083 200.214,175.399 201.121,175.399 201.354 C 175.399 202.940,181.383 210.150,184.883 212.781 C 189.877 216.535,193.905 214.059,195.350 206.345 C 197.562 194.537,183.900 179.225,175.693 184.315 M289.296 199.696 C 289.657 199.790,290.249 199.790,290.610 199.696 C 290.972 199.601,290.676 199.524,289.953 199.524 C 289.230 199.524,288.934 199.601,289.296 199.696 M140.733 207.309 C 141.447 208.083,141.679 208.145,142.423 207.763 L 143.286 207.320 142.414 207.544 C 141.857 207.687,141.247 207.523,140.724 207.090 L 139.906 206.413 140.733 207.309 M240.282 209.843 C 240.746 209.932,241.507 209.932,241.972 209.843 C 242.437 209.753,242.056 209.680,241.127 209.680 C 240.197 209.680,239.817 209.753,240.282 209.843 M131.366 212.097 C 131.833 212.186,132.509 212.183,132.868 212.089 C 133.227 211.995,132.845 211.922,132.019 211.926 C 131.192 211.930,130.899 212.007,131.366 212.097 M254.554 214.725 C 255.019 214.815,255.779 214.815,256.244 214.725 C 256.709 214.636,256.329 214.562,255.399 214.562 C 254.469 214.562,254.089 214.636,254.554 214.725 M255.117 216.221 C 255.479 216.316,256.070 216.316,256.432 216.221 C 256.793 216.127,256.498 216.050,255.775 216.050 C 255.052 216.050,254.756 216.127,255.117 216.221 M225.460 226.757 C 226.655 226.832,228.514 226.831,229.591 226.755 C 230.668 226.680,229.690 226.619,227.418 226.619 C 225.146 226.620,224.264 226.682,225.460 226.757 M164.883 234.484 C 164.883 234.548,165.432 235.098,166.103 235.704 L 167.324 236.808 166.221 235.587 C 165.193 234.449,164.883 234.194,164.883 234.484 M321.291 236.338 L 320.188 237.559 321.408 236.456 C 322.080 235.849,322.629 235.300,322.629 235.235 C 322.629 234.945,322.319 235.200,321.291 236.338 M259.159 238.681 C 258.044 240.024,258.928 240.380,263.181 240.296 L 267.230 240.216 263.192 240.095 C 259.113 239.973,258.476 239.703,259.606 238.573 C 259.854 238.325,259.959 238.122,259.839 238.122 C 259.720 238.122,259.414 238.373,259.159 238.681 M260.179 241.773 C 260.846 241.856,262.029 241.858,262.809 241.776 C 263.588 241.695,263.042 241.627,261.596 241.626 C 260.150 241.624,259.513 241.690,260.179 241.773 M30.047 246.127 C 30.047 246.192,30.596 246.741,31.268 247.348 L 32.488 248.451 31.385 247.230 C 30.357 246.092,30.047 245.837,30.047 246.127 M291.366 247.026 C 291.833 247.116,292.509 247.113,292.868 247.019 C 293.227 246.925,292.845 246.851,292.019 246.855 C 291.192 246.859,290.899 246.936,291.366 247.026 M202.558 263.787 C 203.010 263.959,204.092 264.022,204.961 263.929 C 205.929 263.824,206.609 263.921,206.716 264.179 C 206.811 264.411,206.902 264.347,206.919 264.038 C 206.942 263.588,206.422 263.474,204.342 263.474 C 202.546 263.474,201.991 263.571,202.558 263.787 M129.671 263.921 C 130.033 264.015,130.624 264.015,130.986 263.921 C 131.347 263.826,131.052 263.749,130.329 263.749 C 129.606 263.749,129.310 263.826,129.671 263.921 M193.905 268.545 C 193.905 269.474,193.978 269.854,194.068 269.390 C 194.157 268.925,194.157 268.164,194.068 267.700 C 193.978 267.235,193.905 267.615,193.905 268.545 M180.728 270.655 C 181.077 270.759,181.443 271.214,181.541 271.666 C 181.690 272.355,181.709 272.337,181.658 271.553 C 181.616 270.918,181.355 270.594,180.845 270.542 C 180.304 270.487,180.272 270.519,180.728 270.655 M55.571 275.023 C 56.492 276.005,57.295 276.808,57.355 276.808 C 57.637 276.808,57.339 276.470,55.681 274.914 L 53.897 273.239 55.571 275.023 M193.139 277.183 C 193.139 277.906,193.216 278.202,193.311 277.840 C 193.405 277.479,193.405 276.887,193.311 276.526 C 193.216 276.164,193.139 276.460,193.139 277.183 M174.777 290.157 C 174.655 290.476,174.660 290.842,174.789 290.971 C 174.918 291.100,175.023 290.923,175.023 290.579 C 175.023 289.840,175.784 289.760,176.526 290.423 C 176.974 290.822,176.979 290.794,176.556 290.235 C 175.941 289.422,175.074 289.384,174.777 290.157 M176.358 293.803 C 176.278 294.061,176.110 295.286,175.985 296.526 C 175.588 300.454,174.124 300.397,171.751 296.361 C 170.659 294.505,170.277 294.800,170.178 297.577 C 170.083 300.248,168.712 301.398,167.254 300.028 C 166.467 299.289,166.385 299.276,166.385 299.890 C 166.385 300.941,167.893 309.905,168.287 311.200 C 168.480 311.835,168.638 312.809,168.638 313.366 C 168.638 314.525,169.478 317.429,169.763 317.259 C 169.868 317.196,170.798 316.759,171.831 316.286 C 174.879 314.893,183.055 311.012,183.622 310.689 C 183.909 310.526,184.389 309.553,184.688 308.529 C 184.986 307.505,185.385 306.373,185.573 306.014 C 185.761 305.656,185.915 304.971,185.915 304.493 C 185.915 304.015,186.063 303.464,186.243 303.268 C 186.422 303.071,186.683 302.432,186.821 301.846 C 187.116 300.598,187.398 300.470,182.593 303.756 C 177.883 306.975,177.880 306.974,178.121 300.744 C 178.294 296.269,178.240 295.653,177.577 294.554 C 176.770 293.217,176.575 293.097,176.358 293.803 M174.316 294.898 C 174.292 295.449,174.061 295.985,173.803 296.089 C 173.435 296.238,173.438 296.285,173.815 296.308 C 174.410 296.345,174.770 295.481,174.535 294.576 C 174.417 294.118,174.345 294.223,174.316 294.898 M327.223 316.244 C 327.223 316.967,327.301 317.263,327.395 316.901 C 327.490 316.540,327.490 315.948,327.395 315.587 C 327.301 315.225,327.223 315.521,327.223 316.244 M309.870 342.145 C 309.398 342.443,309.414 342.532,309.980 342.749 C 310.344 342.889,310.748 342.898,310.877 342.769 C 311.006 342.641,310.904 342.535,310.651 342.535 C 310.398 342.535,310.295 342.366,310.423 342.160 C 310.708 341.697,310.583 341.694,309.870 342.145 M261.127 344.307 C 261.695 344.393,262.624 344.393,263.192 344.307 C 263.761 344.221,263.296 344.150,262.160 344.150 C 261.023 344.150,260.559 344.221,261.127 344.307 M251.165 344.684 C 251.832 344.767,253.015 344.769,253.794 344.687 C 254.574 344.606,254.028 344.538,252.582 344.536 C 251.136 344.535,250.499 344.601,251.165 344.684 M269.777 344.690 C 270.764 344.767,272.285 344.766,273.157 344.688 C 274.029 344.609,273.221 344.545,271.362 344.546 C 269.502 344.548,268.789 344.612,269.777 344.690 M280.287 345.058 C 280.858 345.145,281.703 345.142,282.165 345.053 C 282.627 344.964,282.160 344.893,281.127 344.896 C 280.094 344.899,279.716 344.972,280.287 345.058 M291.174 345.438 C 291.948 345.519,293.216 345.519,293.991 345.438 C 294.765 345.357,294.131 345.291,292.582 345.291 C 291.033 345.291,290.399 345.357,291.174 345.438 M295.869 346.932 C 296.333 347.021,297.094 347.021,297.559 346.932 C 298.023 346.842,297.643 346.769,296.714 346.769 C 295.784 346.769,295.404 346.842,295.869 346.932 M316.839 349.995 C 316.449 350.627,317.086 350.734,319.437 350.434 C 321.674 350.147,321.678 350.145,319.937 350.096 C 318.972 350.069,317.933 349.951,317.627 349.834 C 317.322 349.716,316.967 349.789,316.839 349.995 M211.303 350.365 C 211.195 350.540,211.650 351.174,212.314 351.774 L 213.521 352.864 212.418 351.643 C 211.051 350.131,211.871 349.988,213.501 351.455 L 214.648 352.488 213.545 351.268 C 212.453 350.059,211.684 349.750,211.303 350.365 M320.286 354.820 C 320.753 354.909,321.429 354.906,321.788 354.812 C 322.148 354.718,321.765 354.645,320.939 354.649 C 320.113 354.653,319.819 354.730,320.286 354.820 M185.352 356.077 C 185.965 356.358,185.861 356.412,184.789 356.372 C 182.492 356.286,181.820 356.451,183.009 356.808 C 184.191 357.164,186.803 356.581,186.466 356.036 C 186.346 355.841,185.876 355.693,185.424 355.707 C 184.627 355.733,184.625 355.745,185.352 356.077 " stroke="none" fill="#dc2725" fill-rule="evenodd"></path><path id="path4" d="M150.471 21.537 C 149.268 24.417,147.589 32.123,146.858 38.122 C 146.350 42.289,145.889 45.622,145.372 48.870 C 144.772 52.639,144.894 67.725,145.570 73.427 C 147.004 85.513,147.851 89.920,150.443 98.779 C 151.199 101.362,151.953 103.981,152.119 104.601 C 152.285 105.221,154.045 110.545,156.031 116.432 C 158.017 122.319,160.157 128.742,160.786 130.704 C 161.416 132.667,162.088 134.653,162.280 135.117 C 163.998 139.275,163.996 139.269,165.097 142.347 C 165.651 143.897,166.413 146.009,166.790 147.042 C 167.167 148.075,167.744 151.033,168.071 153.615 C 169.188 162.428,169.294 163.193,169.536 164.131 C 169.668 164.648,170.021 166.676,170.320 168.638 C 170.618 170.601,171.135 173.728,171.470 175.587 C 172.748 182.700,172.843 188.622,171.697 189.768 C 171.441 190.024,170.667 189.610,169.321 188.497 C 167.101 186.663,165.024 185.164,164.702 185.164 C 164.586 185.164,163.860 184.747,163.089 184.237 C 157.107 180.278,146.360 178.845,142.804 181.533 C 142.491 181.769,142.030 181.764,141.490 181.517 C 136.600 179.284,134.982 179.842,134.562 183.907 C 134.350 185.965,134.350 185.965,130.088 189.978 C 124.649 195.098,124.650 195.352,130.101 196.375 C 132.917 196.904,132.888 196.855,131.501 198.742 C 129.626 201.291,130.151 202.681,133.245 203.361 C 134.684 203.677,134.703 203.799,133.645 205.977 C 132.445 208.446,132.959 208.903,136.785 208.773 C 139.355 208.685,139.832 208.773,140.519 209.460 L 141.307 210.248 135.536 210.278 C 130.093 210.305,122.660 210.952,117.183 211.874 C 115.840 212.100,113.728 212.418,112.488 212.580 C 110.086 212.894,105.819 213.822,99.718 215.356 C 89.610 217.898,82.046 219.994,79.249 221.026 C 78.526 221.293,76.667 221.886,75.117 222.344 C 73.568 222.801,72.007 223.327,71.648 223.513 C 71.290 223.698,70.761 223.850,70.475 223.850 C 70.056 223.850,64.565 225.952,60.657 227.608 C 60.244 227.783,58.469 228.464,56.714 229.120 C 53.042 230.493,45.604 233.574,42.133 235.160 C 40.828 235.756,39.691 236.244,39.608 236.244 C 39.395 236.244,34.508 238.429,33.714 238.879 C 33.355 239.082,32.895 239.249,32.691 239.249 C 32.486 239.249,31.174 239.775,29.775 240.418 C 28.375 241.060,26.850 241.732,26.385 241.911 C 25.920 242.089,25.540 242.384,25.540 242.565 C 25.540 243.627,44.316 265.734,52.207 273.962 C 60.043 282.135,62.605 284.695,62.947 284.695 C 63.370 284.695,69.058 282.241,69.379 281.920 C 69.505 281.793,69.836 281.690,70.114 281.690 C 70.391 281.690,71.335 281.357,72.211 280.949 C 75.434 279.449,87.490 275.354,95.962 272.882 C 110.654 268.595,124.683 265.727,132.019 265.511 C 134.308 265.444,134.335 265.456,134.858 266.761 C 135.127 267.432,135.823 268.688,136.406 269.551 C 136.988 270.415,137.466 271.260,137.468 271.429 C 137.469 271.599,138.255 273.089,139.215 274.742 C 141.374 278.460,149.853 295.248,149.857 295.810 C 149.870 297.931,152.078 297.674,158.310 294.827 C 158.980 294.521,163.108 292.958,163.249 292.958 C 163.279 292.958,163.392 293.676,163.500 294.554 C 164.005 298.693,164.483 302.278,164.687 303.474 C 165.072 305.727,165.565 308.422,166.197 311.737 C 166.532 313.493,166.983 315.859,167.200 316.995 C 167.416 318.131,167.654 319.272,167.729 319.531 C 167.909 320.158,168.864 320.123,170.083 319.445 C 170.631 319.140,172.178 318.399,173.521 317.799 C 174.864 317.200,177.566 315.928,179.527 314.974 C 183.620 312.982,183.435 313.036,183.175 313.897 C 178.558 329.169,179.259 337.089,185.877 344.413 L 187.744 346.479 186.736 346.897 C 186.181 347.127,184.291 347.786,182.535 348.362 C 169.589 352.612,161.937 359.421,164.984 363.982 C 167.239 367.357,178.054 367.672,189.671 364.700 C 192.201 364.053,195.612 363.247,201.127 361.996 C 209.905 360.003,212.727 358.951,214.296 357.086 C 214.941 356.320,216.229 355.688,219.046 354.757 C 221.172 354.054,225.362 352.620,228.357 351.571 C 242.462 346.632,252.546 345.436,272.864 346.293 C 285.988 346.847,286.787 346.949,289.001 348.360 C 298.504 354.417,312.327 357.387,326.893 356.501 C 335.893 355.954,338.584 355.175,340.051 352.692 C 342.577 348.416,332.316 340.069,322.254 338.214 C 319.458 337.699,319.482 337.790,321.491 335.377 C 329.971 325.187,330.878 315.905,325.267 296.714 C 324.392 293.718,323.535 290.930,323.364 290.516 C 323.192 290.103,322.938 289.343,322.799 288.826 C 322.659 288.310,322.332 287.380,322.072 286.761 C 320.410 282.806,319.374 280.433,318.299 278.122 C 317.627 276.676,316.652 274.563,316.133 273.427 C 315.614 272.291,314.351 269.587,313.326 267.418 C 312.301 265.249,310.581 261.362,309.504 258.779 C 308.427 256.197,307.396 253.746,307.213 253.333 C 306.630 252.016,305.352 247.931,305.352 247.381 C 305.352 246.862,305.912 246.589,308.920 245.641 C 335.417 237.295,334.973 209.545,308.202 200.774 C 303.070 199.092,299.491 198.453,294.085 198.253 C 292.742 198.204,291.525 198.107,291.379 198.038 C 291.234 197.969,292.333 196.100,293.821 193.884 C 297.653 188.178,299.691 183.781,301.604 177.089 C 304.273 167.757,301.555 155.897,295.235 149.296 C 290.806 144.671,289.281 142.421,285.480 134.909 C 284.571 133.112,283.750 130.760,282.635 126.761 C 282.117 124.901,281.497 122.704,281.257 121.878 C 281.017 121.052,280.074 118.797,279.161 116.867 C 278.248 114.938,277.557 113.305,277.624 113.238 C 277.691 113.171,279.014 112.613,280.563 111.997 C 283.234 110.935,285.567 109.873,294.272 105.756 C 298.613 103.703,298.302 103.859,301.972 101.887 C 303.521 101.054,306.310 99.571,308.169 98.592 C 317.166 93.854,331.647 84.083,336.611 79.403 C 337.700 78.375,339.095 77.148,339.710 76.675 C 343.485 73.769,351.906 65.421,356.624 59.906 C 357.861 58.460,358.962 57.192,359.070 57.089 C 360.838 55.402,368.142 44.544,369.353 41.804 C 370.609 38.961,369.293 38.365,364.862 39.768 C 363.634 40.157,361.869 40.689,360.939 40.951 C 357.793 41.837,346.859 45.456,346.202 45.828 C 345.844 46.031,345.292 46.197,344.977 46.197 C 344.661 46.197,344.109 46.346,343.751 46.529 C 342.436 47.198,341.174 47.685,339.155 48.303 C 338.019 48.650,336.929 49.079,336.732 49.256 C 336.536 49.433,336.122 49.577,335.812 49.577 C 335.502 49.577,333.043 50.431,330.347 51.474 C 327.652 52.517,324.094 53.884,322.441 54.512 C 318.138 56.147,308.250 60.421,302.482 63.138 C 301.213 63.736,300.063 64.225,299.927 64.225 C 299.472 64.225,293.971 67.042,284.883 71.927 C 283.643 72.593,281.108 73.949,279.249 74.939 C 277.390 75.930,275.346 77.136,274.706 77.619 C 274.067 78.102,273.438 78.498,273.308 78.498 C 273.178 78.498,271.250 79.625,269.024 81.002 C 266.798 82.379,264.131 84.005,263.099 84.614 C 260.869 85.930,248.562 94.653,248.197 95.177 C 248.035 95.409,247.242 95.379,246.009 95.094 C 243.677 94.556,233.174 94.503,230.257 95.014 C 229.109 95.216,225.972 95.729,223.286 96.155 C 209.042 98.413,201.857 100.984,189.608 108.206 C 188.592 108.805,187.641 109.300,187.495 109.306 C 187.349 109.312,186.564 109.821,185.750 110.436 C 183.833 111.887,183.699 111.690,183.278 106.821 C 182.529 98.140,181.364 91.741,178.772 82.066 C 178.329 80.413,177.879 78.638,177.772 78.122 C 177.315 75.921,173.674 64.142,173.100 63.010 C 172.919 62.651,172.770 62.100,172.770 61.784 C 172.770 61.469,172.614 60.917,172.424 60.558 C 172.234 60.200,171.703 58.892,171.243 57.653 C 170.783 56.413,170.160 54.808,169.860 54.085 C 169.559 53.362,169.184 52.432,169.026 52.019 C 168.460 50.537,168.106 49.709,165.733 44.319 C 165.415 43.596,163.752 40.131,162.037 36.620 C 154.870 21.944,151.913 18.087,150.471 21.537 M153.572 22.629 C 158.891 29.700,169.992 53.607,173.323 65.164 C 173.680 66.404,174.102 67.756,174.261 68.169 C 174.963 69.998,176.710 76.086,177.654 80.000 C 177.828 80.723,178.313 82.582,178.732 84.131 C 180.417 90.370,182.221 101.223,182.731 108.192 C 183.019 112.133,183.292 112.711,184.496 111.938 C 200.554 101.615,208.211 98.873,229.671 95.756 C 235.268 94.944,239.792 94.904,246.009 95.612 L 248.075 95.847 254.206 91.455 C 257.578 89.040,263.982 84.790,268.438 82.011 C 276.965 76.693,277.794 76.212,284.695 72.583 C 294.158 67.606,296.039 66.679,302.911 63.605 C 306.836 61.850,310.723 60.111,311.549 59.740 C 316.853 57.363,319.863 56.124,326.385 53.633 C 342.911 47.321,354.268 43.334,360.939 41.503 C 362.282 41.135,364.061 40.618,364.894 40.355 C 370.701 38.521,370.713 39.399,364.998 48.075 C 349.451 71.678,322.084 92.848,286.309 108.945 C 285.318 109.391,283.615 110.159,282.524 110.652 C 281.433 111.146,280.409 111.549,280.247 111.549 C 279.834 111.549,276.808 113.033,276.808 113.236 C 276.808 113.328,277.468 114.719,278.275 116.326 C 279.757 119.276,280.547 121.427,282.040 126.573 C 284.823 136.160,289.951 145.441,294.885 149.818 C 300.579 154.869,303.499 168.198,300.899 177.268 C 298.855 184.402,292.999 195.952,290.710 197.367 C 289.459 198.141,290.504 198.584,294.178 198.839 C 309.995 199.934,321.618 205.957,326.264 215.466 L 327.700 218.404 327.700 223.286 C 327.700 233.067,321.073 240.762,309.108 244.874 C 304.774 246.364,304.601 246.452,304.601 247.173 C 304.601 247.832,306.676 253.790,307.826 256.432 C 308.118 257.103,308.628 258.286,308.958 259.061 C 309.289 259.836,309.706 260.808,309.884 261.221 C 310.062 261.634,311.482 264.656,313.038 267.937 C 314.595 271.218,315.869 273.947,315.869 274.002 C 315.869 274.057,316.770 276.020,317.872 278.365 C 318.975 280.710,320.340 283.897,320.906 285.446 C 321.473 286.995,322.261 289.088,322.658 290.097 C 323.055 291.106,323.380 292.249,323.380 292.637 C 323.380 293.026,323.539 293.637,323.733 293.996 C 324.827 296.021,327.341 307.117,327.667 311.362 C 327.755 312.498,327.948 314.728,328.097 316.318 C 328.502 320.639,325.375 331.268,323.699 331.268 C 323.524 331.268,323.380 331.449,323.380 331.672 C 323.380 332.124,320.394 336.107,319.496 336.852 C 318.659 337.547,319.156 338.404,320.398 338.404 C 320.986 338.404,321.855 338.554,322.330 338.737 C 322.804 338.920,324.088 339.276,325.182 339.527 C 333.041 341.333,341.286 348.786,339.576 352.539 C 337.950 356.108,317.402 357.322,306.291 354.506 C 299.286 352.731,293.640 350.547,289.389 347.968 L 286.759 346.372 278.449 345.956 C 268.330 345.449,254.844 345.453,250.516 345.964 C 239.612 347.251,237.273 347.779,228.093 351.024 C 221.182 353.467,216.691 354.930,216.103 354.930 C 215.821 354.930,214.846 355.665,213.934 356.563 C 212.364 358.111,207.988 360.188,206.296 360.188 C 205.961 360.188,205.168 360.351,204.534 360.551 C 203.899 360.750,200.761 361.518,197.559 362.258 C 194.357 362.997,190.385 363.925,188.732 364.319 C 172.471 368.198,162.299 366.200,165.030 359.663 C 166.470 356.218,182.414 347.538,185.843 348.333 C 186.624 348.514,186.726 348.476,186.291 348.165 C 185.856 347.854,186.045 347.785,187.116 347.861 C 187.880 347.915,188.626 347.837,188.775 347.688 C 188.924 347.540,188.838 347.418,188.585 347.418 C 188.332 347.418,188.234 347.241,188.367 347.026 C 188.500 346.810,187.955 345.923,187.156 345.054 C 180.477 337.796,179.337 330.308,182.944 317.371 C 184.513 311.744,184.548 311.800,180.712 313.770 C 179.339 314.476,176.526 315.830,174.460 316.779 C 172.394 317.729,170.260 318.738,169.717 319.022 C 168.415 319.701,168.055 319.400,167.745 317.371 C 167.603 316.441,167.343 314.920,167.167 313.991 C 165.441 304.862,164.895 301.549,164.506 297.840 C 164.257 295.465,163.992 293.310,163.916 293.052 C 163.680 292.239,162.491 292.523,157.233 294.648 C 154.422 295.784,151.893 296.714,151.614 296.714 C 151.331 296.714,149.586 293.674,147.678 289.859 C 144.258 283.021,143.239 281.085,137.639 270.798 C 134.129 264.350,134.247 264.465,131.506 264.827 C 130.342 264.981,127.645 265.299,125.513 265.536 C 122.102 265.913,113.418 267.560,109.671 268.539 C 108.948 268.728,105.991 269.489,103.099 270.231 C 100.207 270.972,97.418 271.721,96.901 271.896 C 96.385 272.070,95.202 272.421,94.272 272.675 C 92.557 273.144,84.620 275.829,78.122 278.139 C 75.380 279.114,66.959 282.531,63.271 284.166 C 62.440 284.534,41.018 261.308,34.742 253.233 C 34.329 252.702,32.808 250.890,31.362 249.207 C 26.650 243.722,26.291 243.266,26.291 242.756 C 26.291 242.480,26.547 242.254,26.860 242.254 C 27.172 242.254,27.722 242.087,28.080 241.884 C 28.439 241.681,31.183 240.482,34.178 239.220 C 37.174 237.958,40.469 236.544,41.502 236.077 C 42.535 235.610,44.479 234.759,45.822 234.186 C 47.164 233.613,48.770 232.927,49.390 232.662 C 50.009 232.398,53.812 230.883,57.840 229.296 C 61.869 227.709,65.671 226.178,66.291 225.894 C 67.853 225.179,80.777 220.994,86.573 219.327 C 88.621 218.739,96.690 216.617,98.028 216.315 C 98.751 216.153,100.441 215.743,101.784 215.405 C 105.753 214.406,111.186 213.292,113.803 212.940 C 115.146 212.760,117.494 212.438,119.021 212.225 C 126.763 211.145,132.107 210.683,136.526 210.711 C 142.664 210.751,142.347 210.771,142.347 210.342 C 142.347 209.207,139.521 208.075,136.689 208.075 C 133.173 208.075,133.145 208.047,134.330 205.707 C 135.336 203.723,135.053 202.817,133.431 202.817 C 130.985 202.817,130.352 201.382,131.831 199.191 C 133.567 196.619,133.136 196.110,128.711 195.501 C 125.830 195.105,126.024 194.579,130.690 190.124 C 134.741 186.256,134.905 186.038,135.008 184.393 C 135.241 180.642,135.747 180.310,139.519 181.429 L 142.201 182.226 144.590 181.441 C 151.310 179.235,164.561 183.672,170.618 190.156 C 171.894 191.522,172.154 191.313,172.860 188.357 C 173.407 186.068,172.999 178.478,172.240 176.813 C 172.076 176.454,172.003 175.398,172.077 174.466 C 172.151 173.534,172.053 172.719,171.859 172.654 C 171.076 172.393,170.134 165.634,170.880 165.634 C 171.080 165.634,171.147 165.381,171.029 165.073 C 170.910 164.764,170.680 164.594,170.516 164.695 C 169.997 165.016,169.720 163.672,169.496 159.731 C 169.376 157.620,169.134 155.982,168.958 156.091 C 168.782 156.200,168.625 155.729,168.609 155.046 C 168.494 150.260,168.342 149.635,165.388 141.784 C 164.456 139.305,163.375 136.432,162.986 135.399 C 159.141 125.184,150.242 96.539,148.752 89.577 C 148.309 87.512,147.779 85.054,147.574 84.117 C 145.543 74.832,144.916 56.745,146.281 46.770 C 148.589 29.899,149.996 22.918,151.448 21.127 C 151.977 20.475,151.921 20.435,153.572 22.629 M259.610 131.507 C 256.141 133.729,256.701 139.975,260.432 140.675 C 265.035 141.539,266.538 133.532,262.195 131.286 C 260.830 130.580,261.094 130.558,259.610 131.507 M263.054 132.745 C 264.345 134.437,264.447 137.595,263.259 139.104 C 260.757 142.285,256.085 137.630,258.122 133.986 C 259.737 131.096,261.465 130.661,263.054 132.745 M192.088 151.902 C 189.380 154.037,189.671 157.890,192.668 159.575 C 194.973 160.870,196.840 160.552,198.557 158.571 C 202.089 154.496,196.329 148.558,192.088 151.902 M197.971 152.904 C 201.242 156.404,196.956 161.795,193.013 159.141 C 189.250 156.608,190.569 151.737,195.017 151.737 C 196.619 151.737,197.035 151.902,197.971 152.904 M134.554 212.105 C 135.329 212.186,136.596 212.186,137.371 212.105 C 138.146 212.024,137.512 211.957,135.962 211.957 C 134.413 211.957,133.779 212.024,134.554 212.105 M149.665 221.127 C 150.128 224.222,152.891 235.126,155.493 244.131 C 156.060 246.094,156.903 249.052,157.366 250.704 C 157.829 252.357,158.620 255.061,159.125 256.714 C 159.629 258.366,160.351 260.732,160.728 261.972 C 161.421 264.252,163.153 270.872,163.553 272.770 C 163.809 273.989,165.087 274.151,167.410 273.259 C 168.189 272.960,170.854 272.185,173.333 271.536 C 175.812 270.888,178.666 270.034,179.674 269.639 C 181.813 268.801,182.523 268.740,182.567 269.390 C 182.735 271.843,182.384 276.153,180.835 290.704 C 179.827 300.167,179.661 302.603,179.998 302.940 C 180.714 303.656,188.920 297.748,188.920 296.516 C 188.920 296.067,189.071 295.209,189.256 294.610 C 191.726 286.610,194.325 262.262,192.897 260.508 C 192.672 260.232,190.883 258.817,188.920 257.363 C 185.768 255.028,184.194 253.738,179.718 249.821 C 179.099 249.279,177.324 247.741,175.775 246.404 C 166.855 238.706,155.485 226.824,151.049 220.563 C 149.804 218.808,149.346 218.994,149.665 221.127 M151.456 222.066 C 151.867 222.531,153.522 224.516,155.135 226.479 C 159.666 231.991,170.029 242.371,175.587 246.964 C 176.826 247.988,178.094 249.080,178.404 249.390 C 178.714 249.700,179.981 250.797,181.221 251.829 C 182.460 252.861,183.811 254.010,184.223 254.383 C 184.634 254.756,186.702 256.363,188.817 257.953 L 192.663 260.845 192.663 264.413 C 192.664 269.377,191.766 279.245,190.801 284.883 C 190.589 286.122,190.310 287.858,190.181 288.741 C 190.053 289.624,189.801 290.436,189.622 290.547 C 189.442 290.658,189.291 291.203,189.285 291.759 C 189.274 292.745,188.013 297.808,187.742 297.954 C 185.466 299.186,184.624 299.684,182.820 300.869 C 179.951 302.754,180.077 303.910,181.614 289.765 C 183.359 273.720,183.633 268.654,182.776 268.325 C 182.469 268.207,180.472 268.690,178.339 269.399 C 176.205 270.107,173.362 270.976,172.019 271.329 C 170.676 271.683,168.986 272.148,168.263 272.363 C 164.090 273.602,164.285 273.764,163.007 267.981 C 162.825 267.155,161.732 263.268,160.578 259.343 C 156.291 244.755,154.186 237.348,153.269 233.615 C 152.837 231.859,152.322 229.831,152.124 229.108 C 151.927 228.385,151.495 226.610,151.164 225.164 C 150.834 223.718,150.479 222.239,150.374 221.878 C 150.113 220.976,150.563 221.054,151.456 222.066 M254.178 236.509 C 254.643 236.599,255.404 236.599,255.869 236.509 C 256.333 236.420,255.953 236.346,255.023 236.346 C 254.094 236.346,253.714 236.420,254.178 236.509 M181.897 327.512 C 181.897 328.648,181.967 329.113,182.053 328.545 C 182.139 327.977,182.139 327.047,182.053 326.479 C 181.967 325.911,181.897 326.376,181.897 327.512 M181.897 332.019 C 181.897 333.155,181.967 333.620,182.053 333.052 C 182.139 332.484,182.139 331.554,182.053 330.986 C 181.967 330.418,181.897 330.883,181.897 332.019 " stroke="none" fill="#9a9aa0" fill-rule="evenodd"></path></g></svg>