<svg width="327" height="368" viewBox="0 0 327 368" fill="none" xmlns="http://www.w3.org/2000/svg">
<g clip-path="url(#clip0_24_72)">
<path d="M84.2501 270.714C54.2032 270.708 30.4375 259.55 15.537 238.45C-1.60109 214.179 -4.81234 178.117 7.15608 144.334C22.5721 100.801 56.6524 79.5194 56.9976 79.3119L59.0284 78.0766L62.331 67.2107L77.8631 70.1267L88.6257 91.6946L88.0653 95.5195C87.5302 99.1318 86.9922 102.682 86.4593 106.179L86.3208 107.077C82.4947 132.243 79.1921 153.979 81.8965 166.91C83.5221 174.68 87.1162 179.893 93.4212 183.526C95.5848 180.919 97.061 179.678 98.8845 179.678H99.4732L100.184 179.924C102.781 180.964 103.118 183.919 103.027 187.356C103.28 187.427 103.537 187.501 103.803 187.566C108.417 188.742 111.824 191.465 113.665 195.437C116.704 202.025 113.835 207.859 111.306 213.002C109.437 216.802 106.681 222.398 104.959 229.989C107.559 234.347 107.961 238.512 107.811 241.334C107.596 245.335 106.067 249.361 103.464 252.83C104.263 256.366 103.815 259.701 102.127 262.758C98.295 269.697 90.7581 270.349 88.2828 270.559C87.1416 270.658 85.8611 270.715 84.4676 270.715L84.2501 270.714Z" fill="#260859"/>
<path d="M245.076 270.765C240.167 270.765 235.962 268.785 232.915 265.033C226.936 257.683 227.976 245.723 230.074 234.613C227.794 232.947 224.752 230.555 223.089 226.682L219.207 217.66L227.817 212.925C245.881 202.971 252.633 184.112 247.877 156.863C245.734 153.854 242.74 148.272 240.03 138.321C238.052 131.062 230.488 85.5936 234.586 77.9512C235.32 76.5745 238.236 72.0692 244.765 72.0692C248.894 72.0692 258.708 74.727 265.069 81.0623C265.248 81.0536 265.423 81.0507 265.601 81.0507C269.58 81.0507 272.597 82.9859 275.514 84.853L275.86 85.0714C276.636 85.5646 277.469 86.0941 278.392 86.641C280.02 87.6101 283.227 89.5142 286.076 93.6908C290.645 94.4416 294.312 98.006 300.775 104.634C300.925 104.793 301.497 105.379 301.647 105.524C303.256 107.116 304.531 109.188 305.709 112.143C314.002 115.322 319.006 127.817 319.941 132.345L320.309 133.751C331.463 175.989 328.631 211.167 312.118 235.483C298.696 255.261 276.854 267.09 247.201 270.638C246.443 270.723 245.755 270.765 245.076 270.765Z" fill="#260859"/>
<path d="M155.121 364.827C140.711 359.753 14.3986 313.307 14.3986 245.145L14.4073 40.8532C14.4073 22.4529 30.0184 7.48357 49.2069 7.48357C61.4276 7.48357 72.6181 13.5186 78.9028 23.3705C101.708 20.6134 132.072 14.714 151.161 6.10031L153.017 5.28137L164.21 0L175.936 5.5338C194.875 14.4565 225.964 20.5481 249.5 23.3792C255.788 13.5215 266.975 7.48357 279.19 7.48357C298.385 7.48357 313.999 22.3905 313.999 40.7139L313.979 245.144C313.979 313.547 187.692 359.761 173.291 364.804L164.211 368L155.121 364.827Z" fill="#260859"/>
<path d="M160.151 350.391C146.789 345.691 29.6791 302.809 29.6791 245.145L29.6878 40.8532C29.6878 30.7489 38.4507 22.7699 49.2076 22.7699C59.6019 22.7699 68.1583 30.2477 68.6876 39.7935L68.6905 39.8022C94.3304 37.5862 132.965 31.0811 157.444 20.036L159.203 19.2599L164.21 16.8995L169.413 19.3563C193.66 30.7837 233.209 37.5129 259.71 39.8029H259.713C260.242 30.2513 268.796 22.7714 279.19 22.7714C289.959 22.7714 298.719 30.8214 298.719 40.7154L298.699 245.146C298.699 302.94 181.589 345.699 168.235 350.383L164.196 351.806L160.151 350.391Z" fill="#7C3A00"/>
<path d="M164.153 43.817L163.046 44.2675C135.703 55.4424 96.2591 61.9707 70.7888 64.1642L54.1351 65.6033L54.1293 160.524H164.153V43.817Z" fill="#FFEF6F"/>
<path d="M164.201 16.9025L159.202 19.2599L157.443 20.036C132.964 31.0811 94.3297 37.5862 68.6897 39.8022L68.6868 39.7935C68.1575 30.2477 59.6012 22.7699 49.2069 22.7699C38.45 22.7699 29.6871 30.7489 29.6871 40.8532L29.6783 245.145C29.6783 302.809 146.789 345.69 160.151 350.391L164.195 351.805L164.201 351.802V16.9025H164.201Z" fill="#E8941A"/>
<path d="M279.19 34.9995C275.278 34.9995 272.083 37.4019 271.914 40.468L271.231 53.0712L258.659 51.9831C230.929 49.5887 189.873 42.5164 164.201 30.4152C163.641 30.6785 163.035 30.928 162.46 31.1855C162.472 31.1826 162.482 31.1768 162.491 31.1739V253.932L286.481 162.023L286.495 40.7146C286.494 37.6173 283.149 34.9995 279.19 34.9995Z" fill="#E8941A"/>
<path d="M162.49 250.242V31.1747C136.731 42.803 96.8732 49.6403 69.7374 51.9839L57.1679 53.072L56.4857 40.4746C56.316 37.4034 53.1178 35.0003 49.2069 35.0003C45.0262 35.0003 41.8969 37.8226 41.8911 40.2366L41.9107 40.8547L41.9078 151.645L162.49 250.242Z" fill="#FFEF6F"/>
<path d="M258.659 51.9831C230.929 49.5887 189.873 42.5164 164.201 30.4152C163.845 30.582 163.454 30.7408 163.094 30.9055V61.0306L184.886 59.9026L266.958 75.495L274.268 65.6062L271.231 53.0712L258.659 51.9831Z" fill="#E8941A"/>
<path d="M163.094 30.9055C137.36 42.7014 97.0828 49.6235 69.7374 51.9839L57.1679 53.0719L54.1343 65.604L68.2279 70.6221L142.506 62.0961L163.094 61.0306V30.9055Z" fill="white"/>
<path d="M41.9085 138.398L41.9027 245.499C41.9027 285.55 118.277 323.054 164.187 339.199C210.1 323.068 286.474 285.581 286.474 245.499L286.486 138.398H41.9085Z" fill="#FFD26C"/>
<path d="M163.131 330.5C108.874 310.499 54.1263 277.908 54.1263 250.178L54.135 65.6041L70.7887 64.165C96.2591 61.9722 135.703 55.4439 163.046 44.2683L164.201 43.7982L165.354 44.2683C192.697 55.4432 232.138 61.9715 257.611 64.165L274.268 65.607L274.251 250.178C274.251 277.935 219.504 310.519 165.244 330.5L164.188 330.888L163.131 330.5Z" fill="white"/>
<path d="M257.611 64.1642C232.138 61.9715 192.697 55.4432 165.354 44.2675L164.201 43.7975L163.046 44.2675L164.153 43.8171V160.524H274.258L274.267 65.607L257.611 64.1642Z" fill="#FFD26C"/>
<path d="M164.153 43.817L163.046 44.2675C135.703 55.4424 96.2591 61.9707 70.7888 64.1642L54.1351 65.6033L54.1293 160.524H164.153V43.817Z" fill="#FFEF6F"/>
<path d="M164.187 320.58C106.59 298.992 63.2946 268.586 63.2946 249.65L63.3033 74.0131L71.5761 73.2993C96.8224 71.1262 136.018 64.6944 164.201 53.6833C192.376 64.6944 231.569 71.1262 256.821 73.2993L265.1 74.016L265.083 249.65C265.082 268.606 221.786 299.012 164.187 320.58Z" fill="url(#paint0_linear_24_72)"/>
<path d="M265.082 235.681C265.082 254.637 221.786 285.043 164.187 306.611C106.599 285.026 63.3084 254.629 63.2946 235.69V252.957C63.2946 271.891 106.591 302.297 164.187 323.887C221.786 302.319 265.082 271.913 265.082 252.957L265.099 74.0168L265.082 235.681Z" fill="#260859"/>
<path d="M164.153 53.7001C135.972 64.6995 96.8079 71.1255 71.5754 73.2994L63.3026 74.0131V86.1601L70.6496 85.5312C96.1366 83.358 135.692 76.932 164.153 65.9319V53.7001Z" fill="#A84D10"/>
<path d="M256.821 73.2993C231.569 71.1262 192.376 64.6944 164.201 53.6833C164.04 53.7457 163.87 53.8023 163.708 53.8647C163.853 53.811 164.006 53.7573 164.153 53.7V65.9318C164.167 65.926 164.184 65.9202 164.201 65.9152C192.659 76.9262 232.242 83.358 257.749 85.5312L265.099 86.1629V74.016L256.821 73.2993Z" fill="#A84D10"/>
<path d="M63.3026 76.6513L63.2939 249.65C63.2939 255.173 66.9953 261.67 73.6346 268.638C74.4785 268.717 75.3109 268.813 76.1664 268.875C76.2201 269.757 76.2883 270.576 76.3673 271.369C93.1399 287.427 124.646 305.569 162.541 319.952L162.498 318.671C162.071 305.359 160.796 292.852 159.097 285.216C155.154 267.513 142.702 249.804 132.01 239.978C127.526 228.766 130.747 221.575 135.194 211.638C136.55 208.614 138.088 205.191 139.326 201.588C143.056 190.758 142.419 173.871 137.887 162.433C135.786 155.442 131.228 150.121 125.683 148.197C123.995 147.634 122.038 147.246 119.716 147.019C117.385 139.085 118.549 131.018 118.557 130.953L119.829 123.411L112.754 120.538C112.046 120.249 105.546 117.708 96.0633 117.708C91.6934 117.708 87.2866 118.277 82.9276 119.405C83.5221 115.331 84.1565 111.142 84.8112 106.85C84.8112 106.85 86.0177 98.9076 86.5528 95.3004L87.0429 91.9514L75.8075 72.854C75.8075 72.854 73.4569 73.1427 71.5761 73.3016L63.3026 76.6513Z" fill="#260859"/>
<path d="M250.825 272.513C250.836 271.238 250.85 269.963 250.765 268.595C252.391 268.357 253.983 268.088 255.557 267.795C261.692 261.148 265.082 254.951 265.082 249.65L263.95 85.3404C263.95 85.3404 265.774 85.244 265.569 85.2665C262.85 77.6023 248.647 73.5983 244.764 73.5983C239.241 73.5983 236.746 77.1489 235.93 78.6729C232.24 85.561 239.184 129.423 241.504 137.918C241.728 138.745 241.955 139.507 242.184 140.264L240.972 146.37C230.592 136.467 217.484 125.592 209.965 125.592C209.489 125.592 209.03 125.631 208.588 125.705C206.668 126.039 205.116 127.127 204.226 128.762C202.938 131.125 202.992 134.421 204.422 139.014C200.766 138.269 196.353 137.577 192.575 137.577C187.944 137.577 184.899 138.631 183.268 140.794C180.025 145.098 181.58 151.847 187.885 160.857C189.742 163.518 192.082 166.142 194.388 168.726C194.866 169.267 195.35 169.808 195.832 170.352C189.196 180.799 187.468 196.485 191.226 212.63C192.872 219.694 195.149 224.712 197.163 229.147C198.443 231.963 199.485 234.258 200.128 236.598C184.344 250.074 173.095 267.744 169.206 285.209C167.623 292.307 166.425 303.459 165.91 315.819L165.743 319.984C202.79 305.948 233.761 288.304 250.825 272.513Z" fill="#260859"/>
<path d="M110.893 196.724C109.454 193.613 106.743 191.471 103.056 190.53C88.9339 186.969 81.4883 179.876 78.905 167.537C76.0867 154.064 79.4292 132.076 83.3003 106.615L83.4366 105.72C83.9687 102.227 84.5075 98.6791 85.0396 95.0777L85.4616 92.2016L75.8069 72.8518L64.4584 70.7207L61.6147 80.0822L58.5927 81.9152C58.2613 82.1191 25.1642 102.636 10.0367 145.353C-1.60688 178.221 1.45791 213.212 18.029 236.684C32.3342 256.937 55.2386 267.65 84.2609 267.656C85.64 267.662 86.9038 267.608 88.0196 267.515C91.6224 267.203 96.7231 266.217 99.4537 261.278C100.992 258.49 101.207 255.49 100.1 252.132C102.906 248.896 104.552 245.025 104.759 241.169C104.9 238.549 104.472 234.619 101.706 230.57C103.481 221.973 106.529 215.788 108.557 211.665C111.004 206.689 113.32 201.986 110.893 196.724Z" fill="#260859"/>
<path d="M22.604 150.258C33.0012 101.999 63.1728 94.0367 63.1728 94.0367L62.439 120.198L63.0307 175.569C63.0307 175.569 61.1441 219.706 84.9722 229.167C108.8 238.625 90.0048 259.788 58.7036 251.732C28.8177 244.584 11.3911 201.467 22.604 150.258Z" fill="white"/>
<path d="M43.5935 192.216C36.2952 159.037 52.181 125.877 60.2269 115.846L70.3378 82.5448L76.0758 93.7538C72.7964 115.94 69.2785 136.259 68.8565 152.339C68.7688 155.543 69.525 166.936 70.0376 169.396C72.4564 180.951 78.0414 189.029 87.6991 194.345C89.3247 195.24 97.193 182.025 99.0505 182.765C101.481 183.74 97.9912 198.604 100.841 199.323C107.463 200.995 95.8393 209.249 92.185 232.287C76.8154 233.673 50.8752 225.317 43.5935 192.216Z" fill="#F26531"/>
<path d="M18.5735 148.388C32.8193 108.153 63.2946 89.6649 63.2946 89.6649L62.98 100.851C51.5662 110.111 17.831 152.486 30.8058 203.324C40.5715 238.617 69.0863 249.183 89.1891 245.358C86.215 251.929 99.4703 258.598 84.2667 258.598C17.7977 258.584 1.03086 197.925 18.5735 148.388Z" fill="#7AC143"/>
<path d="M32.3951 114.739L26.5041 123.106L51.3625 130.886L32.3951 114.739Z" fill="#260859"/>
<path d="M16.3555 136.457L12.6259 148.675L45.1227 148.224L16.3555 136.457Z" fill="#260859"/>
<path d="M10.7987 164.386L10.3884 177.157L41.6366 168.225L10.7987 164.386Z" fill="#260859"/>
<path d="M8.72583 198.765L12.5041 212.96L43.959 192.754L8.72583 198.765Z" fill="#260859"/>
<path d="M23.6147 233.245L33.0716 244.476L52.9423 212.801L23.6147 233.245Z" fill="#260859"/>
<path d="M52.569 256.258L65.5322 259.193L71.9242 228.218L52.569 256.258Z" fill="#260859"/>
<path d="M112.989 156.441C113.096 156.453 113.193 156.447 113.307 156.458C106.651 144.096 109.163 129.364 109.163 129.364C109.163 129.364 97.061 124.453 82.0952 129.548C64.4105 135.57 62.4478 148.909 64.5156 152.828C66.4646 156.52 71.503 157.2 76.0686 154.526C78.6404 161.213 81.869 166.021 89.3516 172.073L114.482 157.466C114.481 157.467 113.875 157.18 112.989 156.441Z" fill="#FFF200"/>
<path d="M77.0191 214.099C73.1053 214.099 70.8395 212.779 70.2362 212.373L63.0648 207.695L71.8872 203.046C75.6596 202.114 79.5851 197.518 83.3662 192.369C82.5701 192.5 81.7972 192.633 81.0497 192.757C76.6827 193.505 73.0117 194.132 70.25 194.132C69.7512 194.132 69.2872 194.109 68.8594 194.072C68.7122 194.058 68.573 194.053 68.4316 194.053C65.2087 194.053 60.994 196.756 59.6403 197.799L54.8485 201.748L51.5633 195.387C51.3936 194.888 49.9631 190.332 52.9626 184.75C55.2139 180.573 61.9605 174.686 69.9361 174.686C71.2557 174.686 72.5702 174.844 73.8419 175.159C74.2726 175.266 74.7004 175.32 75.0992 175.32C77.1496 175.32 79.2907 173.884 81.4658 171.053C82.0009 170.325 82.3663 169.681 82.6607 169.168C83.0037 168.574 83.2951 168.08 83.6722 167.579C84.9497 166.049 86.5782 165.332 88.6968 165.332C92.3249 165.332 96.8623 167.253 98.717 172.639C98.7228 172.639 99.2383 173.702 101.719 176.051C104.356 176.606 106.514 177.533 108.146 178.814C110.536 180.698 111.814 183.381 111.737 186.379C111.587 192.389 106.03 199.195 94.7459 207.185C86.663 212.898 80.6444 214.099 77.0191 214.099Z" fill="#260859"/>
<path d="M84.3211 178.296C78.4388 173.536 74.6178 169.243 71.7147 164.108C71.3094 164.134 70.9019 164.151 70.4995 164.151C64.7418 164.151 59.9804 161.386 57.4427 156.563C55.3017 152.514 55.3495 146.533 57.5704 140.948C59.5389 135.984 65.0137 126.914 79.5148 121.973C84.8533 120.156 90.4217 119.236 96.0633 119.236C105.271 119.236 111.496 121.675 112.179 121.953L118.118 124.364L117.05 130.7C117.035 130.799 115.421 141.793 119.545 151.035L131.381 156.841L118.523 164.378L88.6025 181.759L84.3211 178.296Z" fill="#260859"/>
<path d="M104.801 199.526C101.422 199.526 100.612 196.33 99.901 193.511C99.3543 191.349 98.7881 189.114 97.2952 187.623C91.7072 182.036 83.7454 178.78 83.6635 178.746L82.9326 178.452L82.7514 177.681C81.3665 171.856 82.6977 166.166 86.6029 161.219C92.6244 153.597 104.729 148.273 116.041 148.273C119.386 148.273 122.468 148.735 125.198 149.648C133.491 152.526 138.827 163.486 137.368 174.599C135.49 188.868 123.451 198.184 105.163 199.516L104.801 199.526Z" fill="#260859"/>
<path d="M160.973 318.719C160.548 305.509 159.291 293.11 157.605 285.548C153.696 267.989 141.334 250.524 130.724 240.876C125.805 228.873 129.331 220.994 133.789 211.034C135.137 208.033 136.661 204.636 137.882 201.088C142.501 187.672 140.276 163.358 131.091 154.109L130.456 153.469L117.929 157.005L117.723 157.88C115.092 169.007 108.645 183.506 103.244 187.348L99.4573 190.04L99.9445 194.65C100.939 204.196 95.8748 215.611 83.2002 241.311C78.1618 251.52 76.5558 261.638 78.0937 272.983C95.0077 288.412 125.049 305.554 160.993 319.356L160.973 318.719Z" fill="#260859"/>
<path d="M85.284 177.108C79.2711 172.243 75.4197 167.823 72.5702 162.485C71.8763 162.576 71.1825 162.621 70.5002 162.621C65.3313 162.621 61.0629 160.157 58.7942 155.849C56.8569 152.186 56.9308 146.695 58.99 141.512C60.865 136.788 66.0904 128.161 80.0078 123.421C85.1904 121.655 90.5892 120.763 96.064 120.763C104.926 120.763 110.942 123.098 111.599 123.367L116.411 125.319L115.545 130.444C115.528 130.547 113.783 142.407 118.385 152.165L128.157 156.959L117.751 163.057L88.749 179.907L85.284 177.108Z" fill="#260859"/>
<path d="M112.989 156.441C113.096 156.453 113.193 156.447 113.307 156.458C106.651 144.096 109.163 129.364 109.163 129.364C109.163 129.364 97.061 124.453 82.0952 129.548C64.4105 135.57 62.4478 148.909 64.5156 152.828C66.4646 156.52 71.503 157.2 76.0686 154.526C78.6404 161.213 81.869 166.021 89.3516 172.073L114.482 157.466C114.481 157.467 113.875 157.18 112.989 156.441Z" fill="#FFF200"/>
<path d="M88.9433 127.846C86.7515 128.209 84.4654 128.741 82.0952 129.549C80.7952 129.991 79.5945 130.478 78.4612 130.991C78.5577 131.544 78.657 132.094 78.7527 132.663C80.4008 142.169 82.6644 155.13 95.9843 168.217L98.7177 166.628L101.972 163.226C101.626 162.897 101.287 162.563 100.958 162.231C90.0447 151.298 88.0225 142.31 88.9433 127.846Z" fill="#F26531"/>
<path d="M109.162 129.365C109.162 129.365 105.733 127.988 100.292 127.449C98.1565 141.696 100.785 150.823 104.549 159.119C106.627 157.656 109.154 156.039 113.306 156.458C106.65 144.096 109.162 129.365 109.162 129.365Z" fill="#F26531"/>
<path d="M124.714 151.098C108.407 145.652 79.6307 157.949 84.2392 177.33C84.2392 177.33 92.4866 180.653 98.3748 186.541C102.354 190.514 100.688 198.309 105.053 197.988C144.988 195.081 140.257 156.495 124.714 151.098Z" fill="#260859"/>
<path d="M156.112 285.879C152.252 268.535 139.895 251.18 129.444 241.779C124.077 228.986 127.926 220.392 132.395 210.407C133.729 207.431 135.241 204.063 136.436 200.589C140.824 187.85 138.674 163.915 130.004 155.186L119.208 158.231C116.523 169.585 109.989 184.421 104.129 188.592L101.07 190.768L101.464 194.491C102.497 204.436 97.3822 216.005 84.5691 241.991C79.4568 252.35 77.8993 262.732 79.8338 274.544C96.7673 289.338 125.387 305.537 159.442 318.766C158.956 303.546 157.48 292.01 156.112 285.879Z" fill="#260859"/>
<path d="M149.85 287.276C146.451 272.024 134.947 254.941 124.097 245.576C124.082 245.539 124.074 245.508 124.054 245.471C114.778 224.905 125.428 212.858 130.37 198.501C134.131 187.575 132.038 166.344 125.45 159.713C123.375 168.497 116.605 187.595 107.845 193.825C109.086 205.712 103.217 218.691 90.3223 244.83C84.7344 256.164 84.1058 267.449 87.8949 281.03C103.861 292.981 126.558 305.411 152.923 316.167C152.396 303.491 151.179 293.24 149.85 287.276Z" fill="#F26531"/>
<path d="M121.811 156.52C113.915 152.846 92.9536 157.09 85.9924 174.453C85.9924 174.453 92.4388 178.156 96.6419 183.702C99.4769 187.451 99.3043 193.916 102.955 194.01C134.035 194.812 133.809 162.108 121.811 156.52Z" fill="#F26531"/>
<path d="M75.3936 208.897C73.9942 208.897 72.7457 208.247 71.9583 207.114C70.5335 205.072 71.4116 202.7 71.8792 201.428C74.3741 194.684 81.2259 188.243 87.4678 186.761L99.0803 183.682L100.372 184.308C103.6 185.869 102.181 182.063 104.24 182.879C112.593 186.191 108.494 192.96 107.384 194.522C104.872 198.058 101.74 198.055 100.086 198.342C93.3538 199.481 89.5785 201.32 86.8226 202.669C85.7321 203.201 84.7917 203.66 83.7889 204.045C83.0806 204.32 81.5659 205.511 80.6567 206.222C78.6056 207.835 77.249 208.897 75.3936 208.897Z" fill="#260859"/>
<path d="M98.6829 187.805L88.3626 190.541C83.3778 191.72 77.6144 197.115 75.5241 202.77C73.428 208.432 78.9934 201.733 82.3896 200.424C85.7741 199.11 89.7278 196.154 99.4283 194.508C109.129 192.865 98.6829 187.805 98.6829 187.805Z" fill="#F26531"/>
<path d="M88.5322 186.898C88.5322 186.898 80.5117 203.541 70.2841 207.339L78.0784 208.336C78.0784 208.336 89.382 201.53 91.4491 194.041C93.5169 186.561 93.2987 182.557 93.2987 182.557L88.5322 186.898Z" fill="#260859"/>
<path d="M104.942 182.889C100.485 179.378 89.1217 180.931 89.1217 180.931L95.4717 184.683C89.3878 191.764 82.2823 205.82 73.1198 208.075C73.1198 208.075 78.9797 211.991 91.7558 202.953C104.532 193.915 109.409 186.397 104.942 182.889Z" fill="#FFF200"/>
<path d="M87.8217 170.671C87.2612 171.422 86.8501 172.468 85.5726 174.204C83.678 176.672 79.1718 181.817 72.5927 180.185C66.0136 178.553 59.5331 183.466 57.5225 187.204C55.5141 190.941 56.4603 193.707 56.4603 193.707C56.4603 193.707 63.2693 188.369 69.3155 188.913C75.3682 189.463 92.5599 183.898 105.755 186C105.755 186 95.347 178.63 93.8229 174.332C92.3648 170.09 88.0936 170.351 87.8217 170.671Z" fill="#FFF200"/>
<path d="M108.304 161.678C102.331 169.609 99.4566 171.088 93.8229 174.332C107.038 198.682 131.987 167.546 108.304 161.678Z" fill="#260859"/>
<path d="M106.095 179.628C103.204 179.628 100.898 177.647 99.292 175.632C103.064 173.312 105.846 171.017 109.706 166.2C113.011 167.548 114.518 169.583 114.193 172.252C113.776 175.663 110.148 179.628 106.095 179.628Z" fill="white"/>
<path d="M108.12 166.821C106.22 167.668 104.385 168.73 102.538 169.524C101.513 169.966 99.7284 171.382 99.9039 171.816C100.736 173.865 102.096 175.843 104.314 176.712C104.529 176.797 104.75 176.865 104.971 176.922C105.474 176.018 105.939 175.049 106.347 174.015C107.157 171.94 107.803 169.118 108.12 166.821Z" fill="#260859"/>
<path d="M105.098 176.964C105.098 175.125 104.889 173.385 104.532 171.793C102.861 173.286 101.201 174.456 99.292 175.632C100.677 177.372 102.592 179.078 104.948 179.514C105.039 178.69 105.098 177.842 105.098 176.964Z" fill="#F37344"/>
<path d="M81.2592 144.093C81.5768 150.723 84.4168 158.303 89.991 165.143L93.4662 162.088C85.0491 156.937 81.2592 144.093 81.2592 144.093Z" fill="#260859"/>
<path d="M88.7367 135.19C87.8985 142.923 89.8126 152.208 95.0243 161.134L99.5958 158.232C90.7929 150.735 88.7367 135.19 88.7367 135.19Z" fill="#260859"/>
<path d="M100.045 130.263C98.026 137.769 98.485 147.238 102.255 156.863L107.217 154.707C99.6769 145.943 100.045 130.263 100.045 130.263Z" fill="#260859"/>
<path d="M120.415 228.453C120.608 223.379 121.961 218.797 123.697 214.391C123.984 213.662 118.375 218.55 112.683 220.174C107.418 221.675 102.054 219.877 101.841 220.386C100.076 224.541 97.9354 229.159 95.4231 234.384C109.208 235.585 115.127 232.771 120.415 228.453Z" fill="#7AC143"/>
<path d="M122.309 218.318C123.216 215.476 124.348 212.734 125.547 210.022C116.172 215.615 110.667 217.681 103.099 217.326C102.183 219.621 101.127 222.075 99.9518 224.69C109.46 225.708 117.571 222.143 122.309 218.318Z" fill="white"/>
<path d="M90.3057 244.87C84.7344 256.19 84.1087 267.464 87.8956 281.031C96.6303 287.568 107.365 294.252 119.633 300.726C128.425 274.018 117.77 253.353 113.717 245.825C107.795 247.457 89.6459 253.915 90.3057 244.87Z" fill="white"/>
<path d="M186.579 126.293C183.993 126.293 182.036 125.324 180.982 124.805C180.345 124.483 179.532 124.071 175.802 121.295C172.012 122.38 168.104 122.93 164.17 122.93C160.167 122.93 156.206 122.366 152.376 121.255C148.586 124.077 147.754 124.493 147.193 124.776C146.199 125.272 144.149 126.292 141.54 126.292C138.634 126.292 135.964 125.117 133.601 122.807C130.052 119.308 128.863 116.032 129.495 111.49C129.594 110.767 129.814 109.657 130.721 106.568C129.551 105.064 128.472 103.46 127.501 101.788C120.363 99.4394 118.319 98.4674 117.268 97.8269C113.946 95.7814 112.295 91.8825 112.207 85.9012C112.122 79.9394 113.632 76.0239 116.821 73.9356C117.333 73.6012 118.169 73.0572 122.831 70.958C123.009 70.1789 123.213 69.405 123.434 68.6405C119.69 63.2568 119.152 62.0977 118.86 61.4688C117.837 59.2419 117.271 55.5868 120.353 50.7726C121.477 49.0215 125.592 43.3151 131.302 43.3151H131.88L132.9 43.4682C133.582 43.6016 134.54 43.7939 139.847 45.7349C142.923 43.5842 146.259 41.8528 149.785 40.5783C151.436 36.4474 151.994 35.5233 152.266 35.0699C154.305 31.7209 158.285 30.0236 164.105 30.0236C170.087 30.0236 174.128 31.7296 176.119 35.0924C176.408 35.5827 176.884 36.3843 178.557 40.5805C182.078 41.8557 185.408 43.5842 188.473 45.7291C193.713 43.8084 194.653 43.6183 195.282 43.4877L195.814 43.3804L196.826 43.318C202.561 43.318 206.515 48.5319 207.954 50.7726C211.035 55.581 210.472 59.2303 209.455 61.4463C209.152 62.1035 208.602 63.2793 204.895 68.6064C205.121 69.3854 205.326 70.1702 205.507 70.9609C210.2 73.0688 210.993 73.5903 211.523 73.9385C214.711 76.0239 216.221 79.9394 216.133 85.9041C216.051 91.7977 214.355 95.8038 211.089 97.8102C210.352 98.2636 208.993 99.105 200.836 101.788C199.828 103.533 198.692 105.205 197.46 106.778C198.438 110.133 198.554 110.974 198.624 111.49C199.256 116.035 198.071 119.307 194.531 122.792C192.161 125.114 189.488 126.293 186.579 126.293Z" fill="#260859"/>
<path d="M186.579 124.763C184.335 124.763 182.582 123.891 181.64 123.426C181.099 123.151 180.266 122.734 176.105 119.609C172.228 120.799 168.22 121.403 164.17 121.403C160.055 121.403 155.997 120.788 152.079 119.57C147.857 122.737 147.021 123.154 146.503 123.415C145.543 123.891 143.784 124.763 141.541 124.763C139.048 124.763 136.74 123.74 134.669 121.715C131.472 118.564 130.444 115.759 131.007 111.704C131.107 110.978 131.355 109.785 132.412 106.241C130.968 104.456 129.671 102.538 128.538 100.52C121.078 98.0808 119.016 97.103 118.067 96.5219C115.224 94.7738 113.813 91.2943 113.736 85.8823C113.657 80.4849 114.943 76.9937 117.659 75.2144C118.146 74.8967 118.999 74.3447 124.159 72.0409C124.419 70.7998 124.74 69.5733 125.108 68.3713C121.049 62.5626 120.514 61.3984 120.245 60.8203C119.384 58.9474 118.929 55.8305 121.639 51.5973C122.661 50.0051 126.371 44.8449 131.302 44.8449H131.88L132.642 44.9755C133.245 45.0944 134.268 45.3069 140.08 47.446C143.379 45.0436 147.09 43.1106 150.95 41.7875C152.757 37.217 153.323 36.2791 153.575 35.8569C155.317 32.9983 158.854 31.5526 164.105 31.5526C169.509 31.5526 173.109 33.0062 174.802 35.8707C175.071 36.324 175.556 37.143 177.394 41.7897C181.245 43.1156 184.947 45.0393 188.244 47.4395C194.053 45.2975 195.002 45.1046 195.588 44.9856L196.123 44.8754L196.882 44.8471C201.966 44.8471 205.654 50.0153 206.668 51.5966C209.378 55.824 208.922 58.9409 208.067 60.8109C207.786 61.4115 207.243 62.5815 203.221 68.3365C203.598 69.5551 203.915 70.7933 204.178 72.0424C209.378 74.3599 210.182 74.8873 210.681 75.2159C213.397 76.9923 214.683 80.4834 214.606 85.8838C214.53 91.2217 213.077 94.7949 210.29 96.5089C209.622 96.9195 208.268 97.75 199.799 100.518C198.624 102.618 197.276 104.598 195.769 106.443C196.922 110.339 197.043 111.205 197.112 111.702C197.675 115.756 196.653 118.561 193.461 121.701C191.385 123.738 189.071 124.763 186.579 124.763Z" fill="#260859"/>
<path d="M174.437 51.1505C174.437 51.1505 170.534 40.6669 169.543 38.984C168.546 37.2983 159.939 37.1561 158.817 39.0065C157.704 40.8678 153.923 51.1505 153.923 51.1505H174.437Z" fill="#7F3F98"/>
<path d="M153.461 110.809C153.461 110.809 145.27 117.193 143.77 117.943C142.272 118.691 140.917 119.275 138.944 117.346C137.003 115.433 136.791 114.487 137.06 112.543C137.329 110.608 140.595 100.518 140.595 100.518L153.461 110.809Z" fill="#7F3F98"/>
<path d="M174.658 110.809C174.658 110.809 182.849 117.193 184.35 117.943C185.848 118.691 187.205 119.275 189.176 117.346C191.116 115.433 191.329 114.487 191.06 112.543C190.791 110.608 187.525 100.518 187.525 100.518L174.658 110.809Z" fill="#7F3F98"/>
<path d="M133.253 74.7531C133.253 74.7531 122.618 79.2779 121.007 80.3318C119.403 81.3829 119.438 90.1895 121.25 91.3029C123.063 92.4135 133.652 95.7429 133.652 95.7429L133.253 74.7531Z" fill="#7F3F98"/>
<path d="M195.086 74.7531C195.086 74.7531 205.722 79.2779 207.333 80.3318C208.939 81.3829 208.902 90.1895 207.09 91.3029C205.277 92.4135 194.688 95.7429 194.688 95.7429L195.086 74.7531Z" fill="#7F3F98"/>
<path d="M130.484 73.3561L125.105 75.5488C124.768 78.5751 125.706 84.1168 129.787 87.2881C133.868 90.45 130.484 73.3561 130.484 73.3561Z" fill="#260859"/>
<path d="M197.57 73.3561L202.949 75.5488C203.286 78.5751 202.349 84.1168 198.267 87.2881C194.186 90.45 197.57 73.3561 197.57 73.3561Z" fill="#260859"/>
<path d="M144.373 55.6013C144.373 55.6013 133.378 51.3681 131.497 50.98C129.614 50.5832 124.912 56.3354 125.796 58.2619C126.683 60.1914 133.415 69.5109 133.415 69.5109L144.373 55.6013Z" fill="#7F3F98"/>
<path d="M183.934 55.6013C183.934 55.6013 194.928 51.3681 196.806 50.98C198.69 50.5832 203.394 56.3354 202.51 58.2619C201.624 60.1914 194.891 69.5109 194.891 69.5109L183.934 55.6013Z" fill="#7F3F98"/>
<path d="M138.513 50.439C136.867 53.162 133.562 57.0325 136.077 63.011C138.162 60.1378 144.149 52.0855 144.365 50.8386L138.513 50.439Z" fill="#260859"/>
<path d="M184.46 106.219L192.167 103.028L194.625 106.542C191.612 108.855 188.997 111.291 184.013 110.982C177.711 110.582 184.46 106.219 184.46 106.219Z" fill="#260859"/>
<path d="M143.659 106.219L135.953 103.028L133.494 106.542C136.507 108.855 139.122 111.291 144.107 110.982C150.411 110.582 143.659 106.219 143.659 106.219Z" fill="#260859"/>
<path d="M189.827 50.439C191.47 53.162 194.775 57.0325 192.257 63.011C190.179 60.1378 184.185 52.0855 183.97 50.8386L189.827 50.439Z" fill="#260859"/>
<path d="M198.964 80.482C198.964 99.707 183.384 115.288 164.17 115.288C144.951 115.288 129.374 99.707 129.374 80.482C129.374 61.257 144.951 45.6675 164.17 45.6675C183.384 45.6675 198.964 61.257 198.964 80.482Z" fill="#7F3F98"/>
<path d="M239.471 237.15C221.962 226.578 202.671 207.5 205.94 188.519C207.262 180.852 201.295 174.171 195.526 167.71C193.28 165.188 190.954 162.584 189.137 159.986C185.095 154.206 181.002 146.343 184.489 141.716C185.815 139.956 188.46 139.106 192.575 139.106C197.243 139.106 202.944 140.208 206.764 141.089C205.246 137.102 203.992 132.382 205.566 129.495C206.241 128.257 207.379 127.469 208.852 127.211C209.203 127.152 209.577 127.124 209.965 127.124C217.716 127.124 232.637 140.364 241.926 149.412L243.877 139.563L244.673 141.367C245.293 141.523 259.9 145.419 267.679 168.22C278.793 178.616 289.949 195.58 288.253 212.368L287.244 222.266L269.33 219.217L261.714 218.305L269.305 227.547L264.818 235.008L256.908 236.571C253.439 237.263 249.586 237.884 245.457 238.416L242.237 238.824L239.471 237.15Z" fill="#260859"/>
<path d="M240.085 238.135C233.956 225.056 228.666 213.76 231.662 202.159C235.633 186.788 235.234 175.085 230.478 167.386C226.675 161.227 221.418 159.832 220.404 159.614L218.667 159.243L208.466 161.631L208.174 161.734C195.775 165.961 186.601 186.025 192.716 212.283C194.325 219.205 196.563 224.129 198.554 228.513C200.018 231.737 201.204 234.35 201.842 237.152C185.913 250.503 174.581 268.093 170.699 285.541C169.133 292.554 167.946 303.61 167.439 315.879L167.297 319.393C202.607 305.855 232.229 289.083 249.319 273.865C249.659 264.494 247.469 254.277 242.89 244.181C241.963 242.142 241.02 240.13 240.085 238.135Z" fill="#260859"/>
<path d="M245.076 267.708C241.119 267.708 237.735 266.118 235.288 263.103C229.827 256.393 231.229 244.354 233.444 233.298C233.067 233.006 232.659 232.711 232.308 232.456C230.215 230.94 227.355 228.869 225.899 225.478L223.112 219L229.289 215.603C248.729 204.892 255.969 184.8 250.809 155.882C250.769 155.763 250.733 155.644 250.69 155.528C248.653 152.827 245.708 147.54 242.978 137.519C240.423 128.151 234.053 85.4144 237.279 79.3961C237.965 78.1122 240.072 75.1259 244.765 75.1259C248.158 75.1259 258.235 77.7698 263.888 84.272C264.443 84.1617 265.021 84.1073 265.601 84.1073C268.683 84.1073 271.084 85.6458 273.865 87.428C274.769 88.0003 275.738 88.6212 276.834 89.2726C278.428 90.2192 281.663 92.1342 284.303 96.6002C288.359 96.6481 291.312 99.3087 298.588 106.767C298.654 106.841 299.353 107.558 299.526 107.724C301.019 109.201 302.191 111.289 303.38 114.627C310.656 116.191 315.932 128.043 316.947 132.965C316.984 133.155 317.057 133.424 317.156 133.795L317.354 134.535C328.275 175.887 325.593 210.202 309.591 233.766C296.684 252.784 275.57 264.163 246.837 267.6C246.214 267.674 245.642 267.708 245.076 267.708Z" fill="#260859"/>
<path d="M309.341 134.536C308.047 128.243 301.61 119.975 301.329 122.792C301.185 124.265 302.496 132.609 302.895 137.863C302.198 137.361 301.397 136.811 300.935 136.434C298.775 126.226 296.188 115.351 294.067 113.251C292.464 111.673 283.477 102.082 283.933 104.872C286.02 117.631 289.356 126.761 292.143 133.187C289.912 131.546 288.9 130.773 287.753 129.979C283.358 126.936 281.418 107.958 278.067 101.384C276.354 98.0096 273.986 96.6184 272.867 95.9554C265.673 91.6794 263.71 88.8011 264.991 97.6868C265.968 104.459 266.69 113.511 275.68 132.399L269.729 127.882C264.81 123.918 261.703 101.763 259.924 93.0053C258.452 85.7205 244.679 82.0226 244.12 83.0686C243.265 84.6666 246.833 122.153 250.467 135.476C254.098 148.793 258.027 153.069 258.324 153.829C261.091 168.852 262.23 188.533 252.263 204.613C250.632 207.242 229.721 191.165 227.453 193.568C225.184 195.97 241.569 216.855 238.581 218.949C236.859 220.162 235.012 221.316 233.03 222.407C234.406 225.608 240.575 227.34 241.665 231.545C242.076 231.545 233.687 261.35 245.916 259.885C345.071 248.035 310.641 140.829 309.341 134.536Z" fill="white"/>
<path d="M254.292 237.195C249.172 221.656 239.275 200.81 239.275 200.81L218.512 192.681L232.311 238.416L227.898 234.324L227.085 237.62L234.743 251.801C234.743 251.801 254.968 254.887 257.526 247.375C256.405 243.4 255.98 242.32 254.292 237.195Z" fill="#AAA4C4"/>
<path d="M244.523 244.276C242.308 244.389 241.963 239.207 240.19 239.487C238.754 248.203 237.845 260.851 245.916 259.885C322.055 250.789 319.427 185.467 313.519 152.78C312.548 173.682 314.471 240.578 244.523 244.276Z" fill="#AAA4C4"/>
<path d="M239.708 254.478C240.47 257.975 242.277 260.321 245.916 259.885C280.852 255.711 299.173 239.69 308.239 220.428C293.32 245.426 261.137 250.934 239.708 254.478Z" fill="#F2F1F8"/>
<path d="M266.354 169.076C258.786 146.476 244.302 142.849 244.302 142.849L243.053 152.664C241.609 151.267 217.934 127.192 209.112 128.719C203.099 129.759 208.781 141.951 209.305 143.288C204.878 142.129 188.955 138.333 185.709 142.637C182.466 146.938 187.806 155.416 190.391 159.111C196.8 168.285 209.443 177.194 207.446 188.776C204.249 207.336 223.635 225.804 240.261 235.84L242.574 237.24L245.259 236.9C249.275 236.381 253.093 235.772 256.614 235.072L263.858 233.638L267.439 227.682L258.123 216.332L269.588 217.708L285.887 220.482L286.734 212.214C288.248 197.243 278.725 180.523 266.354 169.076Z" fill="#260859"/>
<path d="M248.465 152.296L248.822 170.948L264.037 177.23C256.781 163.213 248.465 152.296 248.465 152.296Z" fill="#6B5F91"/>
<path d="M238.703 238.79C232.45 225.439 227.049 213.912 230.181 201.777C234.044 186.819 233.704 175.519 229.178 168.189C225.7 162.561 220.993 161.303 220.084 161.11L218.682 160.81L208.968 163.077L208.667 163.182C196.911 167.188 188.287 186.524 194.206 211.937C195.781 218.721 197.99 223.577 199.936 227.861C201.601 231.528 202.91 234.409 203.524 237.739C187.655 250.807 176.043 268.572 172.188 285.876C170.644 292.795 169.466 303.755 168.965 315.941L168.849 318.798C202.417 305.778 230.705 289.865 247.749 275.242C248.369 265.841 246.259 255.306 241.498 244.814C240.575 242.782 239.635 240.776 238.703 238.79Z" fill="#260859"/>
<path d="M178.453 287.276C177.119 293.243 175.901 303.509 175.38 316.203C201.748 305.461 224.468 293.036 240.445 281.082C242.94 270.927 240.702 258.59 235.653 247.469C228.272 231.207 219.733 216.564 223.967 200.17C231.719 170.167 218.742 167.39 218.742 167.39L210.738 169.257C202.174 172.178 195.387 188.717 200.454 210.484C203.632 224.147 209.783 229.564 210.29 240.564C192.186 254.385 181.685 272.76 178.453 287.276Z" fill="white"/>
<path d="M258.259 207.896L279.003 211.43L269.86 199.705L238.621 191.321L224.819 195.679L243.948 209.518L251.358 209.424L253.592 213.051L258.259 207.896Z" fill="#42316F"/>
<path d="M249.259 230.57C249.015 230.488 248.078 230.417 247.574 230.38C244.721 230.164 239.42 229.77 235.523 224.449C228.785 215.254 221.854 202.297 221.786 202.167L220.396 199.566L232.144 188.404L234.753 190.294C242.666 196.015 257.396 206.671 254.459 227.469L253.785 232.246L249.259 230.57Z" fill="#260859"/>
<path d="M245.968 160.64C239.646 157.079 244.784 166.525 244.784 166.525L257.393 172.388C257.393 172.388 252.292 164.202 245.968 160.64Z" fill="#260859"/>
<path d="M238.649 222.158C242.597 227.538 248.015 225.963 250.615 226.929C253.088 209.415 241.558 200.012 232.477 193.441L225.212 200.346C225.213 200.345 231.985 213.051 238.649 222.158Z" fill="#F6A0A6"/>
<path d="M236.185 201.576L243.181 200.881L240.323 194.2L233.245 194.809L236.185 201.576Z" fill="#260859"/>
<path d="M223.967 200.17C224.216 199.019 224.434 197.925 224.629 196.852L224.032 173.187L218.863 169.056L215.581 168.13L210.737 169.258C208.512 170.02 206.402 171.715 204.589 174.173C207.926 179.395 211.605 181.566 210.701 190.276C209.744 199.555 218.58 208.654 222.911 211.087C222.791 207.648 223.117 204.088 223.967 200.17Z" fill="#AAA4C4"/>
<path d="M251.366 225.135C253.45 224.81 255.398 224.467 257.189 224.113C248.5 216.819 239.456 205.675 235.185 194.542C236.003 194.426 236.841 194.336 237.694 194.262L228.94 187.686L227.895 200.116L243.102 219.285L251.366 225.135Z" fill="#260859"/>
<path d="M255.102 227.453C246.41 220.156 237.369 209.018 233.098 197.878C243.339 196.427 256.147 197.812 279.002 211.43C280.744 194.265 273.066 164.845 191.843 147.054C206.004 169.988 217.441 171.683 215.141 189.76C213.345 203.908 228.005 219.369 244.274 229.19C248.344 228.671 251.946 228.077 255.102 227.453Z" fill="white"/>
<path d="M241.886 195.036L250.4 205.97L260.794 197.937L241.886 195.036Z" fill="white"/>
<path d="M221.976 148.085L211.089 150.814L233.299 181.582L221.976 148.085Z" fill="#260859"/>
<path d="M253.963 215.946L245.087 221.03L250.369 225.297L253.963 215.946Z" fill="white"/>
<path d="M251.063 224.379L255.102 227.453L257.099 221.736L251.063 224.379Z" fill="white"/>
<path d="M212.927 135.93C220.911 156.744 228.595 172.383 230.557 177.044C232.957 182.756 235.163 185.201 242.73 189.256C247.706 191.922 257.104 196.801 265.609 196.816C259.253 180.985 253.867 172.944 237.904 158.235C229.691 150.67 220.398 142.453 212.927 135.93Z" fill="#594C82"/>
<path d="M256.068 195.585C244.362 192.908 237.553 184.305 236.888 171.371L236.607 165.973L240.986 169.138C255.603 179.707 258.681 188.465 259.211 192.744L259.67 196.415L256.068 195.585Z" fill="#260859"/>
<path d="M243.6 175.542C244.138 185.912 249.247 194.73 260.775 197.371C260.163 192.457 256.147 184.617 243.6 175.542Z" fill="white"/>
<path d="M255.411 184.844L254.014 184.234C253.771 184.651 253.547 185.093 253.349 185.572C252.054 188.731 252.323 191.828 253.955 192.506C255.136 192.987 256.827 191.953 258.096 190.199L255.411 184.844Z" fill="#260859"/>
<path d="M235.653 247.469C235.625 247.4 235.591 247.335 235.562 247.271C234.478 249.209 233.427 251.294 233.427 251.294C233.427 251.294 219.637 246.792 215.194 245.567C210.94 253.47 200.52 273.701 209.059 300.536C221.147 294.138 231.807 287.545 240.446 281.082C242.94 270.927 240.702 258.59 235.653 247.469Z" fill="#6B5F91"/>
<path d="M82.7405 279.212C99.3971 292.875 125.55 307.504 156.398 319.767V310.64C123.264 297.213 97.3039 281.538 82.7405 268.538V279.212Z" fill="#260859"/>
<path d="M172.152 319.699C202.816 307.506 228.825 292.971 245.456 279.373V268.708C231.008 281.549 205.51 296.963 172.988 310.235L172.152 319.699Z" fill="#260859"/>
<path d="M170.132 69.9076C170.098 69.3157 170.135 68.7144 170.228 68.1109C170.976 63.7616 175.1 60.8457 179.45 61.5942C183.718 62.3254 186.595 66.3149 186.004 70.5648C180.484 69.735 175.165 69.3832 170.132 69.9076Z" fill="white"/>
<path d="M142.6 79.8618C147.542 86.4924 155.438 90.7793 164.332 90.7793C173.228 90.7793 181.124 86.4924 186.064 79.8618H142.6Z" fill="#260859"/>
<path d="M179.762 85.9476C176.275 84.7543 170.509 83.984 163.98 83.984C157.749 83.984 152.204 84.6869 148.68 85.7858C153.105 88.9194 158.5 90.7785 164.331 90.7785C170.064 90.7785 175.38 88.9854 179.762 85.9476Z" fill="#B30838"/>
<path d="M138.04 79.8618L138.358 80.8251C140.638 87.7443 141.873 89.5411 144.371 89.5606H144.39C146.829 89.5606 148.137 87.6965 150.46 80.9013L150.819 79.8611L138.04 79.8618Z" fill="#260859"/>
<path d="M141.438 79.8022C141.438 79.8022 143.58 86.3051 144.379 86.3109C145.178 86.3196 147.392 79.845 147.392 79.845L141.438 79.8022Z" fill="white"/>
<path d="M178.009 79.8618L178.326 80.8251C180.606 87.7443 181.841 89.5411 184.339 89.5606H184.359C186.797 89.5606 188.106 87.6965 190.431 80.9013L190.788 79.8611L178.009 79.8618Z" fill="#260859"/>
<path d="M181.407 79.8022C181.407 79.8022 183.548 86.3051 184.347 86.3109C185.148 86.3196 187.36 79.845 187.36 79.845L181.407 79.8022Z" fill="white"/>
<path d="M175.748 104.753C175.748 108.139 170.576 110.882 164.201 110.882C157.822 110.882 152.651 108.139 152.651 104.753C152.651 101.367 157.822 98.6248 164.201 98.6248C170.577 98.6248 175.748 101.367 175.748 104.753Z" fill="#FFEF6F"/>
<path d="M168.144 104.753C168.144 105.91 166.379 106.844 164.201 106.844C162.026 106.844 160.258 105.91 160.258 104.753C160.258 103.594 162.026 102.656 164.201 102.656C166.38 102.657 168.144 103.594 168.144 104.753Z" fill="#7F3F98"/>
<path d="M175.406 64.7618C175.462 66.3344 176.349 67.5697 177.371 67.5298C178.402 67.482 179.181 66.1785 179.113 64.6059C179.053 63.0275 178.164 61.7806 177.136 61.8263C176.11 61.8691 175.329 63.1813 175.406 64.7618Z" fill="#260859"/>
<path d="M158.171 69.9076C158.208 69.3157 158.168 68.7144 158.075 68.1109C157.33 63.7616 153.206 60.8457 148.856 61.5942C144.587 62.3254 141.71 66.3149 142.302 70.5648C147.823 69.735 153.142 69.3832 158.171 69.9076Z" fill="white"/>
<path d="M152.898 64.7618C152.838 66.3344 151.955 67.5697 150.935 67.5298C149.901 67.482 149.12 66.1785 149.194 64.6059C149.253 63.0275 150.143 61.7806 151.168 61.8263C152.195 61.8691 152.977 63.1813 152.898 64.7618Z" fill="#260859"/>
</g>
<defs>
<linearGradient id="paint0_linear_24_72" x1="164.197" y1="58.4006" x2="164.197" y2="318.307" gradientUnits="userSpaceOnUse">
<stop stop-color="#E8941A"/>
<stop offset="1" stop-color="#FFEF6F"/>
</linearGradient>
<clipPath id="clip0_24_72">
<rect width="327" height="368" fill="white"/>
</clipPath>
</defs>
</svg>
